<svg width="39" height="39" viewBox="0 0 39 39" fill="none" xmlns="http://www.w3.org/2000/svg">
<path d="M18.0945 23.6217C8.36073 23.7418 9.27221 15.8106 6.86882 17.7333C5.15142 19.2118 5.66707 20.6174 5.66707 23.6217C5.66707 26.6259 9.6327 28.4285 12.2764 28.4285C14.9202 28.4285 27.2977 28.5487 29.9415 28.4285C32.5852 28.3083 34.6919 26.8141 35.7097 24.4629C36.3589 22.963 37.6263 19.8914 36.7766 17.7333C35.1911 16.709 25.8816 23.5255 18.0945 23.6217Z" fill="#FC7C48"/>
<path d="M12.117 4.37975C13.9416 4.37975 25.4007 3.28222 27.4334 5.20492C29.4659 7.12763 20.7364 15.5623 16.7086 16.1716C14.2664 16.5411 7.17994 12.7777 7.17994 10.5345C8.78985 7.17161 9.00451 4.37975 12.117 4.37975Z" fill="#E65046"/>
<path d="M1.60645 1.5H4.73846C6.68246 1.5 8.21245 3.174 8.05045 5.1L6.55645 23.028C6.30445 25.962 8.62643 28.482 11.5784 28.482H30.7484C33.3404 28.482 35.6084 26.358 35.8064 23.784L36.7784 10.284C36.9944 7.29601 34.7264 4.86599 31.7204 4.86599H8.48246" stroke="#292D32" stroke-width="2.7" stroke-miterlimit="10" stroke-linecap="round" stroke-linejoin="round"/>
<path d="M27.2566 37.5C28.4992 37.5 29.5066 36.4926 29.5066 35.25C29.5066 34.0074 28.4992 33 27.2566 33C26.014 33 25.0066 34.0074 25.0066 35.25C25.0066 36.4926 26.014 37.5 27.2566 37.5Z" stroke="#292D32" stroke-width="2.7" stroke-miterlimit="10" stroke-linecap="round" stroke-linejoin="round"/>
<path d="M12.8564 37.5C14.0991 37.5 15.1064 36.4926 15.1064 35.25C15.1064 34.0074 14.0991 33 12.8564 33C11.6138 33 10.6064 34.0074 10.6064 35.25C10.6064 36.4926 11.6138 37.5 12.8564 37.5Z" stroke="#292D32" stroke-width="2.7" stroke-miterlimit="10" stroke-linecap="round" stroke-linejoin="round"/>
<path d="M14.2065 12.2998H35.8065" stroke="#292D32" stroke-width="2.7" stroke-miterlimit="10" stroke-linecap="round" stroke-linejoin="round"/>
</svg>
