<svg width="22" height="38" viewBox="0 0 22 38" fill="none" xmlns="http://www.w3.org/2000/svg">
<path d="M13.4686 2.28149C12.8702 1.36508 7.03316 1.37951 6.38589 2.64806C5.73862 3.9166 5.56792 7.33328 6.87955 6.98529C8.19115 6.63731 11.9845 8.69086 13.4686 7.37891C14.1663 6.19796 14.067 3.19789 13.4686 2.28149Z" fill="#E65046"/>
<path d="M19.1617 27.0576C12.2676 26.215 3.32175 28.2269 1.18866 29.9333C0.569241 32.6364 0.262617 36.8067 1.18866 37.2663C2.6171 37.0142 20.1682 38.3944 20.1682 36.4035C20.7044 34.7183 21.4597 32.1132 19.1617 27.0576Z" fill="#FC7C48"/>
<path d="M13.9554 1.5V11.4847H14.0802C15.8012 11.6702 17.3922 12.4876 18.545 13.7788C19.6979 15.07 20.3306 16.7431 20.3206 18.4741V36.9458H0.97522V18.3492C0.965089 16.6513 1.58464 15.0098 2.71416 13.742C3.84368 12.4742 5.40299 11.6699 7.09086 11.4847V1.5H13.9554Z" stroke="black" stroke-width="1.87214" stroke-linecap="round" stroke-linejoin="round"/>
<path d="M7.09058 6.11816H13.9551" stroke="black" stroke-width="1.87214" stroke-linecap="round" stroke-linejoin="round"/>
<path d="M0.975342 21.9688H20.3208" stroke="black" stroke-width="1.87214" stroke-linecap="round" stroke-linejoin="round"/>
<path d="M0.975342 28.5835H20.3208" stroke="black" stroke-width="1.87214" stroke-linecap="round" stroke-linejoin="round"/>
</svg>
