<svg width="38" height="37" viewBox="0 0 38 37" fill="none" xmlns="http://www.w3.org/2000/svg">
<path d="M35.4374 16.5048C28.709 15.6825 3.65288 26.0535 1.57104 27.7189C0.966505 30.3571 1.14878 36.2633 2.54292 36.0173C3.93704 35.7713 36.1849 37.5118 36.1849 35.5687C36.7083 33.924 37.6802 21.439 35.4374 16.5048Z" fill="#FC7C48"/>
<path d="M13.9987 1.63234C13.3627 0.984453 7.15835 0.994656 6.47036 1.8915C5.78236 2.78834 5.60093 5.20388 6.99508 4.95786C8.3892 4.71184 12.4212 6.16367 13.9987 5.23614C14.7402 4.40122 14.6347 2.28022 13.9987 1.63234Z" fill="#E65046"/>
<path d="M30.6174 1.58908C29.984 0.912692 24.4676 -0.188217 23.4035 1.589C22.3395 3.36621 23.8299 4.97185 25.1746 5.30396C26.5194 5.63607 29.3491 5.65338 30.9265 4.72586C31.6681 3.89094 31.2509 2.26547 30.6174 1.58908Z" fill="#E65046"/>
<path d="M6.91794 1.65428H13.6178H13.6805C13.7963 1.59823 13.891 1.50918 13.9518 1.39939C14.0126 1.28959 14.0363 1.16445 14.0198 1.04118C14.0033 0.917916 13.9473 0.802575 13.8596 0.711043C13.7719 0.619511 13.6567 0.556285 13.53 0.53006H6.91794C6.82372 0.500382 6.7235 0.492534 6.6255 0.507163C6.5275 0.521793 6.43452 0.558481 6.35418 0.614217C6.27385 0.669953 6.20844 0.743151 6.16334 0.827802C6.11824 0.912452 6.09473 1.00614 6.09473 1.10119C6.09473 1.19623 6.11824 1.28993 6.16334 1.37458C6.20844 1.45923 6.27385 1.53242 6.35418 1.58816C6.43452 1.64389 6.5275 1.68058 6.6255 1.69521C6.7235 1.70984 6.82372 1.702 6.91794 1.67232V1.65428Z" fill="#292D32" stroke="#292D32" stroke-width="0.935503"/>
<path d="M36.515 15.7102H34.9592V14.9708C34.9712 14.2101 34.7241 13.4665 34.2555 12.8525C33.7868 12.2384 33.1221 11.7875 32.3621 11.568H32.3244C31.5466 11.3636 31.5026 10.8646 31.5026 10.8646L30.7498 4.41388H29.5579L30.2919 10.6903L30.3358 10.9789C30.3358 10.9789 30.4111 12.1812 31.3835 12.3977C31.6704 12.4885 31.9494 12.6011 32.2178 12.7343C32.6785 12.9217 33.0717 13.2347 33.3483 13.6345C33.6249 14.0343 33.7728 14.5031 33.7736 14.9828V15.7222H21.4466V14.9828C21.4496 14.5827 21.5539 14.1893 21.7506 13.8364C21.9473 13.4835 22.2305 13.1816 22.5758 12.9568C22.6871 12.8849 22.8023 12.8187 22.9208 12.7584C23.2104 12.6071 23.5151 12.4843 23.8304 12.3917C24.602 12.2113 24.7902 11.3937 24.8404 11.0751L25.3862 4.41388H24.1943L23.6611 10.8827C23.5985 11.0612 23.4868 11.2202 23.3377 11.343C23.1886 11.4657 23.0078 11.5476 22.8142 11.5801L22.7452 11.6101C22.0056 11.8414 21.3629 12.2937 20.9113 12.9007C20.4597 13.5077 20.2229 14.2374 20.2358 14.9828V15.7222H17.7642V14.9828C17.7761 14.2221 17.5291 13.4785 17.0604 12.8645C16.5918 12.2505 15.9271 11.7996 15.167 11.5801L15.0918 11.55C14.3139 11.3456 14.3139 10.8586 14.3139 10.8586L13.5611 4.40786H12.3629L13.0969 10.6843L13.1345 10.9728C13.1345 10.9728 13.2098 12.1752 14.1821 12.3917C14.47 12.4801 14.7492 12.5928 15.0165 12.7283V12.7283C15.4765 12.916 15.8688 13.2292 16.1443 13.6291C16.4199 14.0289 16.5665 14.4976 16.566 14.9768V15.7162H4.27036V14.9768C4.27125 14.4612 4.44498 13.9596 4.76594 13.5459C4.93613 13.3114 5.14856 13.1079 5.39327 12.9448L5.73203 12.7464C6.02351 12.5946 6.3304 12.4717 6.64792 12.3796C6.93192 12.2793 7.17868 12.1008 7.35724 11.8666C7.5358 11.6324 7.63822 11.3528 7.65165 11.063L8.2037 4.40186H7.00551L6.47227 10.8706C6.41464 11.0408 6.31219 11.1938 6.17483 11.3149C6.03746 11.436 5.86983 11.5211 5.68811 11.562H5.64421C4.89916 11.799 4.25006 12.2532 3.78774 12.8612C3.32543 13.4692 3.07304 14.2005 3.06589 14.9527V15.6922H1.52894C1.36256 15.6922 1.203 15.7555 1.08535 15.8683C0.967704 15.981 0.901611 16.1339 0.901611 16.2934V35.7899C0.909665 35.9441 0.979296 36.0894 1.09608 36.1957C1.21287 36.3021 1.36786 36.3613 1.52894 36.3611H36.5025C36.5809 36.3619 36.6588 36.3476 36.7315 36.3192C36.8042 36.2908 36.8702 36.2488 36.9257 36.1956C36.9812 36.1424 37.0251 36.0791 37.0548 36.0094C37.0844 35.9398 37.0992 35.8652 37.0984 35.7899V16.2813C37.0992 16.2071 37.0848 16.1335 37.0559 16.0646C37.0271 15.9958 36.9843 15.933 36.9301 15.88C36.876 15.8269 36.8114 15.7847 36.7402 15.7555C36.669 15.7264 36.5924 15.711 36.515 15.7102V15.7102ZM35.8877 35.2068H2.13744V16.8525H35.919L35.8877 35.2068Z" fill="#292D32" stroke="#292D32" stroke-width="0.935503"/>
<path d="M24.094 1.65428H30.8126H30.8816C30.9974 1.59823 31.0922 1.50918 31.1529 1.39939C31.2137 1.28959 31.2374 1.16445 31.2209 1.04118C31.2044 0.917916 31.1485 0.802575 31.0607 0.711043C30.973 0.619511 30.8578 0.556285 30.7311 0.53006H24.094C23.9997 0.500382 23.8995 0.492534 23.8015 0.507163C23.7035 0.521793 23.6105 0.558481 23.5302 0.614217C23.4499 0.669953 23.3845 0.743151 23.3394 0.827802C23.2943 0.912452 23.2708 1.00614 23.2708 1.10119C23.2708 1.19623 23.2943 1.28993 23.3394 1.37458C23.3845 1.45923 23.4499 1.53242 23.5302 1.58816C23.6105 1.64389 23.7035 1.68058 23.8015 1.69521C23.8995 1.70984 23.9997 1.702 24.094 1.67232V1.65428Z" fill="#292D32" stroke="#292D32" stroke-width="0.935503"/>
<path d="M8.53675 30.8658H29.5209C29.6765 30.8585 29.8237 30.796 29.9338 30.6905C30.044 30.5849 30.1092 30.4438 30.1168 30.2947V21.7638C30.122 21.6861 30.1104 21.6082 30.0827 21.535C30.055 21.4619 30.0118 21.3949 29.9559 21.3385C29.8999 21.282 29.8324 21.2373 29.7575 21.207C29.6827 21.1768 29.6021 21.1617 29.5209 21.1626H8.53675C8.37037 21.1626 8.21081 21.226 8.09316 21.3387C7.97552 21.4515 7.90942 21.6044 7.90942 21.7638V30.2947C7.91748 30.4489 7.98711 30.5942 8.10389 30.7005C8.22068 30.8068 8.37567 30.866 8.53675 30.8658ZM9.13271 22.335H28.9312V29.7356H9.13271V22.335Z" fill="#292D32" stroke="#292D32" stroke-width="0.935503"/>
</svg>
