<svg width="37" height="37" viewBox="0 0 37 37" fill="none" xmlns="http://www.w3.org/2000/svg">
<path d="M32.323 17.1737C26.4995 16.462 4.81332 25.4381 3.01147 26.8796C2.48824 29.1629 2.646 34.2748 3.85264 34.0619C5.05926 33.849 32.97 35.3554 32.97 33.6737C33.423 32.2501 34.2642 21.4443 32.323 17.1737Z" fill="#FC7C48"/>
<path d="M13.7676 4.30149C13.2172 3.74074 7.84728 3.74957 7.25182 4.52579C6.65636 5.30201 6.49933 7.39268 7.70597 7.17975C8.91259 6.96682 12.4023 8.22338 13.7676 7.4206C14.4094 6.69798 14.3181 4.86224 13.7676 4.30149Z" fill="#E65046"/>
<path d="M28.1514 4.26406C27.6032 3.67864 22.8287 2.7258 21.9077 4.26399C20.9868 5.80218 22.2768 7.19187 23.4406 7.47931C24.6045 7.76676 27.0536 7.78174 28.419 6.97896C29.0608 6.25634 28.6997 4.84948 28.1514 4.26406Z" fill="#E65046"/>
<path d="M7.6391 4.32033H13.4379H13.4922C13.5923 4.27181 13.6744 4.19474 13.727 4.09972C13.7796 4.00469 13.8001 3.89638 13.7858 3.78969C13.7715 3.683 13.7231 3.58317 13.6472 3.50395C13.5712 3.42473 13.4716 3.37 13.3619 3.34731H7.6391C7.55755 3.32162 7.47081 3.31483 7.38599 3.32749C7.30117 3.34015 7.2207 3.3719 7.15117 3.42014C7.08163 3.46838 7.02503 3.53174 6.98599 3.605C6.94696 3.67827 6.92661 3.75936 6.92661 3.84162C6.92661 3.92389 6.94696 4.00498 6.98599 4.07825C7.02503 4.15151 7.08163 4.21486 7.15117 4.2631C7.2207 4.31134 7.30117 4.34309 7.38599 4.35575C7.47081 4.36842 7.55755 4.36163 7.6391 4.33594V4.32033Z" fill="#292D32" stroke="#292D32" stroke-width="0.44"/>
<path d="M33.2558 16.4857H31.9093V15.8457C31.9197 15.1874 31.7058 14.5437 31.3002 14.0123C30.8946 13.4809 30.3193 13.0906 29.6615 12.9006H29.6289C28.9556 12.7237 28.9176 12.2918 28.9176 12.2918L28.2661 6.70865H27.2345L27.8697 12.1409L27.9077 12.3907C27.9077 12.3907 27.9729 13.4314 28.8145 13.6187C29.0629 13.6973 29.3043 13.7948 29.5366 13.9101C29.9354 14.0722 30.2756 14.3432 30.515 14.6892C30.7544 15.0352 30.8824 15.441 30.8831 15.8561V16.4961H20.214V15.8561C20.2166 15.5098 20.3069 15.1693 20.4772 14.8639C20.6474 14.5585 20.8925 14.2972 21.1914 14.1026C21.2877 14.0404 21.3874 13.9831 21.49 13.9309C21.7406 13.8 22.0044 13.6936 22.2773 13.6135C22.9451 13.4574 23.108 12.7497 23.1514 12.4739L23.6238 6.70865H22.5922L22.1307 12.3074C22.0765 12.462 21.9798 12.5996 21.8508 12.7058C21.7218 12.8121 21.5652 12.883 21.3977 12.911L21.338 12.937C20.6979 13.1372 20.1416 13.5287 19.7507 14.054C19.3599 14.5794 19.155 15.211 19.1661 15.8561V16.4961H17.0269V15.8561C17.0372 15.1978 16.8234 14.5541 16.4178 14.0227C16.0122 13.4913 15.4369 13.101 14.779 12.911L14.7139 12.885C14.0406 12.7081 14.0406 12.2866 14.0406 12.2866L13.3891 6.70344H12.352L12.9873 12.1357L13.0199 12.3855C13.0199 12.3855 13.085 13.4261 13.9266 13.6135C14.1758 13.69 14.4174 13.7876 14.6487 13.9049V13.9049C15.0469 14.0673 15.3864 14.3384 15.6249 14.6845C15.8634 15.0305 15.9903 15.4362 15.9898 15.8509V16.4909H5.34789V15.8509C5.34866 15.4047 5.49903 14.9706 5.77683 14.6125C5.92413 14.4095 6.10799 14.2333 6.31978 14.0922L6.61298 13.9205C6.86526 13.7891 7.13087 13.6827 7.40569 13.6031C7.6515 13.5162 7.86506 13.3617 8.01961 13.159C8.17416 12.9563 8.2628 12.7143 8.27443 12.4635L8.75223 6.69824H7.71518L7.25367 12.297C7.20378 12.4443 7.11511 12.5767 6.99622 12.6815C6.87733 12.7864 6.73224 12.86 6.57497 12.8954H6.53697C5.89213 13.1005 5.33032 13.4936 4.93019 14.0198C4.53005 14.5461 4.3116 15.179 4.30542 15.8301V16.4701H2.97518C2.83118 16.4701 2.69307 16.5249 2.59125 16.6225C2.48942 16.7201 2.43222 16.8524 2.43222 16.9904V33.8648C2.43919 33.9983 2.49946 34.124 2.60054 34.2161C2.70161 34.3081 2.83576 34.3593 2.97518 34.3592H33.245C33.3129 34.3599 33.3803 34.3475 33.4432 34.3229C33.5061 34.2983 33.5633 34.262 33.6113 34.2159C33.6594 34.1699 33.6974 34.1151 33.723 34.0548C33.7487 33.9945 33.7615 33.9299 33.7608 33.8648V16.98C33.7615 16.9158 33.749 16.8521 33.724 16.7924C33.699 16.7328 33.6621 16.6785 33.6152 16.6326C33.5683 16.5867 33.5124 16.5501 33.4508 16.5249C33.3891 16.4997 33.3229 16.4864 33.2558 16.4857V16.4857ZM32.7129 33.3601H3.50184V17.4743H32.74L32.7129 33.3601Z" fill="#292D32" stroke="#292D32" stroke-width="0.44"/>
<path d="M22.5053 4.32033H28.3204H28.3801C28.4803 4.27181 28.5623 4.19474 28.6149 4.09972C28.6675 4.00469 28.688 3.89638 28.6737 3.78969C28.6595 3.683 28.611 3.58317 28.5351 3.50395C28.4592 3.42473 28.3595 3.37 28.2498 3.34731H22.5053C22.4237 3.32162 22.337 3.31483 22.2522 3.32749C22.1674 3.34015 22.0869 3.3719 22.0174 3.42014C21.9478 3.46838 21.8912 3.53174 21.8522 3.605C21.8132 3.67827 21.7928 3.75936 21.7928 3.84162C21.7928 3.92389 21.8132 4.00498 21.8522 4.07825C21.8912 4.15151 21.9478 4.21486 22.0174 4.2631C22.0869 4.31134 22.1674 4.34309 22.2522 4.35575C22.337 4.36842 22.4237 4.36163 22.5053 4.33594V4.32033Z" fill="#292D32" stroke="#292D32" stroke-width="0.44"/>
<path d="M9.04006 29.6034H27.202C27.3366 29.5971 27.464 29.543 27.5594 29.4516C27.6547 29.3603 27.7112 29.2382 27.7178 29.1091V21.7256C27.7223 21.6583 27.7122 21.5909 27.6882 21.5276C27.6643 21.4642 27.6269 21.4063 27.5785 21.3574C27.53 21.3086 27.4716 21.2698 27.4068 21.2437C27.342 21.2175 27.2723 21.2044 27.202 21.2052H9.04006C8.89606 21.2052 8.75796 21.2601 8.65614 21.3576C8.55431 21.4552 8.49711 21.5876 8.49711 21.7256V29.1091C8.50408 29.2425 8.56435 29.3683 8.66542 29.4603C8.7665 29.5523 8.90065 29.6036 9.04006 29.6034ZM9.55587 22.2199H26.6916V28.6252H9.55587V22.2199Z" fill="#292D32" stroke="#292D32" stroke-width="0.44"/>
</svg>
