<svg width="37" height="37" viewBox="0 0 37 37" fill="none" xmlns="http://www.w3.org/2000/svg">
<path d="M20.2232 4.39563C19.7126 3.61366 14.7318 3.62598 14.1795 4.70842C13.6272 5.79087 13.4815 8.70631 14.6007 8.40937C15.7199 8.11244 18.9568 9.86472 20.2232 8.74524C20.8185 7.73754 20.7338 5.17759 20.2232 4.39563Z" fill="#E65046"/>
<path d="M25.081 25.5372C19.1983 24.8182 11.5648 26.535 9.74468 27.9911C9.21613 30.2977 8.95449 33.8561 9.74468 34.2483C10.9636 34.0332 25.9398 35.2109 25.9398 33.5121C26.3974 32.0741 27.0419 29.8512 25.081 25.5372Z" fill="#FC7C48"/>
<path d="M20.6385 3.72882V12.2488H20.745C22.2136 12.407 23.5711 13.1045 24.5548 14.2063C25.5386 15.3081 26.0785 16.7357 26.07 18.2127V33.9746H9.5626V18.1062C9.55395 16.6573 10.0826 15.2567 11.0464 14.1749C12.0102 13.093 13.3408 12.4068 14.7811 12.2488V3.72882H20.6385Z" stroke="#292D32" stroke-width="1.59749" stroke-linecap="round" stroke-linejoin="round"/>
<path d="M14.781 7.66925H20.6385" stroke="#292D32" stroke-width="1.59749" stroke-linecap="round" stroke-linejoin="round"/>
<path d="M9.56267 21.1947H26.07" stroke="#292D32" stroke-width="1.59749" stroke-linecap="round" stroke-linejoin="round"/>
<path d="M9.56267 26.8391H26.07" stroke="#292D32" stroke-width="1.59749" stroke-linecap="round" stroke-linejoin="round"/>
</svg>
