<svg width="24" height="24" viewBox="0 0 24 24" fill="none" xmlns="http://www.w3.org/2000/svg">
<path d="M4.31884 1.4338H8.6159H8.65614C8.73038 1.39785 8.79116 1.34074 8.83013 1.27032C8.8691 1.1999 8.88434 1.11964 8.87375 1.04058C8.86316 0.961519 8.82726 0.887543 8.771 0.828837C8.71474 0.770132 8.64088 0.729581 8.55958 0.712761H4.31884C4.25842 0.693726 4.19413 0.688693 4.13128 0.698076C4.06843 0.707458 4.00879 0.730989 3.95727 0.766737C3.90574 0.802484 3.8638 0.849431 3.83487 0.903722C3.80594 0.958014 3.79086 1.0181 3.79086 1.07906C3.79086 1.14002 3.80594 1.20012 3.83487 1.25441C3.8638 1.3087 3.90574 1.35564 3.95727 1.39139C4.00879 1.42714 4.06843 1.45067 4.13128 1.46005C4.19413 1.46943 4.25842 1.46441 4.31884 1.44537V1.4338Z" fill="#292D32" stroke="#292D32" stroke-width="0.6"/>
<path d="M23.3016 10.4487H22.3038V9.97446C22.3114 9.48661 22.153 9.00965 21.8524 8.61585C21.5518 8.22204 21.1255 7.93285 20.6381 7.79206H20.6139C20.115 7.66096 20.0869 7.34093 20.0869 7.34093L19.604 3.20364H18.8396L19.3103 7.22912L19.3385 7.41419C19.3385 7.41419 19.3868 8.18536 20.0104 8.32417C20.1945 8.38245 20.3734 8.45466 20.5455 8.54009C20.841 8.66028 21.0932 8.86104 21.2706 9.11743C21.448 9.37382 21.5428 9.67453 21.5434 9.98217V10.4564H13.6372V9.98217C13.6392 9.72557 13.7061 9.47326 13.8322 9.24692C13.9584 9.02057 14.14 8.82697 14.3615 8.68276C14.4329 8.63669 14.5067 8.59422 14.5828 8.55551C14.7685 8.45852 14.9639 8.37972 15.1662 8.32031C15.661 8.20463 15.7817 7.68025 15.8139 7.47589L16.164 3.20364H15.3995L15.0575 7.3525C15.0174 7.46701 14.9457 7.56901 14.8501 7.64773C14.7545 7.72646 14.6385 7.77899 14.5144 7.79978L14.4701 7.81906C13.9958 7.96738 13.5836 8.25747 13.2939 8.64677C13.0043 9.03608 12.8524 9.50411 12.8607 9.98217V10.4564H11.2755V9.98217C11.2831 9.49432 11.1247 9.01737 10.8241 8.62356C10.5235 8.22976 10.0972 7.94056 9.60975 7.79978L9.56147 7.7805C9.06256 7.6494 9.06256 7.33708 9.06256 7.33708L8.57974 3.19978H7.81126L8.282 7.22526L8.30615 7.41033C8.30615 7.41033 8.35443 8.1815 8.97807 8.32031C9.16272 8.37705 9.34179 8.44931 9.51319 8.53624V8.53624C9.80825 8.65659 10.0598 8.85751 10.2365 9.11395C10.4133 9.37039 10.5073 9.671 10.507 9.97831V10.4526H2.62099V9.97831C2.62156 9.64767 2.73298 9.32597 2.93884 9.06063C3.04799 8.91022 3.18424 8.77966 3.34119 8.67505L3.55846 8.54781C3.7454 8.45045 3.94223 8.37164 4.14588 8.3126C4.32802 8.24824 4.48629 8.13376 4.60081 7.98354C4.71533 7.83332 4.78102 7.65404 4.78964 7.46817L5.1437 3.19592H4.37522L4.03322 7.34479C3.99626 7.4539 3.93055 7.55204 3.84245 7.62972C3.75435 7.70739 3.64683 7.76198 3.53029 7.78821H3.50213C3.02428 7.94017 2.60797 8.23151 2.31146 8.62145C2.01494 9.01139 1.85307 9.48042 1.84848 9.96289V10.4372H0.862735C0.756026 10.4372 0.653687 10.4778 0.578232 10.5501C0.502778 10.6224 0.460388 10.7205 0.460388 10.8227V23.3272C0.465554 23.4261 0.510213 23.5192 0.585115 23.5874C0.660017 23.6556 0.759422 23.6936 0.862735 23.6935H23.2936C23.3439 23.694 23.3938 23.6849 23.4405 23.6666C23.4871 23.6484 23.5294 23.6215 23.565 23.5873C23.6006 23.5532 23.6288 23.5126 23.6478 23.468C23.6668 23.4233 23.6763 23.3754 23.6758 23.3272V10.815C23.6763 10.7674 23.6671 10.7202 23.6485 10.676C23.63 10.6319 23.6026 10.5916 23.5679 10.5576C23.5331 10.5236 23.4917 10.4965 23.446 10.4778C23.4004 10.4591 23.3513 10.4492 23.3016 10.4487V10.4487ZM22.8993 22.9532H1.25301V11.1813H22.9194L22.8993 22.9532Z" fill="#292D32" stroke="#292D32" stroke-width="0.6"/>
<path d="M15.3351 1.4338H19.6443H19.6885C19.7627 1.39785 19.8235 1.34074 19.8625 1.27032C19.9015 1.1999 19.9167 1.11964 19.9061 1.04058C19.8955 0.961519 19.8596 0.887543 19.8034 0.828837C19.7471 0.770132 19.6733 0.729581 19.5919 0.712761H15.3351C15.2747 0.693726 15.2104 0.688693 15.1476 0.698076C15.0847 0.707458 15.0251 0.730989 14.9736 0.766737C14.922 0.802484 14.8801 0.849431 14.8512 0.903722C14.8222 0.958014 14.8071 1.0181 14.8071 1.07906C14.8071 1.14002 14.8222 1.20012 14.8512 1.25441C14.8801 1.3087 14.922 1.35564 14.9736 1.39139C15.0251 1.42714 15.0847 1.45067 15.1476 1.46005C15.2104 1.46943 15.2747 1.46441 15.3351 1.44537V1.4338Z" fill="#292D32" stroke="#292D32" stroke-width="0.6"/>
<path d="M5.357 20.1692H18.8155C18.9153 20.1646 19.0097 20.1245 19.0804 20.0568C19.151 19.9891 19.1928 19.8986 19.1977 19.8029V14.3315C19.2011 14.2817 19.1936 14.2317 19.1758 14.1848C19.1581 14.1379 19.1304 14.0949 19.0945 14.0587C19.0586 14.0225 19.0153 13.9938 18.9673 13.9744C18.9193 13.955 18.8676 13.9453 18.8155 13.946H5.357C5.25029 13.946 5.14795 13.9866 5.0725 14.0589C4.99704 14.1312 4.95465 14.2293 4.95465 14.3315V19.8029C4.95982 19.9018 5.00448 19.995 5.07938 20.0632C5.15428 20.1314 5.25368 20.1694 5.357 20.1692ZM5.73923 14.6978H18.4373V19.4444H5.73923V14.6978Z" fill="#292D32" stroke="#292D32" stroke-width="0.6"/>
</svg>
