<svg width="49" height="48" viewBox="0 0 49 48" fill="none" xmlns="http://www.w3.org/2000/svg">
<path d="M46.666 35.82C46.706 37.32 46.306 38.74 45.586 39.96C45.186 40.68 44.646 41.34 44.046 41.88C42.666 43.16 40.846 43.94 38.826 44C35.906 44.06 33.326 42.56 31.906 40.26C31.146 39.08 30.686 37.66 30.666 36.16C30.606 33.64 31.726 31.36 33.526 29.86C34.886 28.74 36.606 28.04 38.486 28C42.906 27.9 46.566 31.4 46.666 35.82Z" stroke="#292D32" stroke-width="3" stroke-miterlimit="10" stroke-linecap="round" stroke-linejoin="round"/>
<path d="M35.546 36.0601L37.566 37.98L41.746 33.9399" stroke="#292D32" stroke-width="3" stroke-linecap="round" stroke-linejoin="round"/>
<path d="M7.0061 14.88L24.6661 25.1L42.2061 14.9399" stroke="#292D32" stroke-width="3" stroke-linecap="round" stroke-linejoin="round"/>
<path d="M24.666 43.22V25.08" stroke="#292D32" stroke-width="3" stroke-linecap="round" stroke-linejoin="round"/>
<path d="M43.886 18.34V29.6601C43.886 29.7601 43.886 29.84 43.866 29.94C42.466 28.72 40.666 28 38.666 28C36.786 28 35.046 28.66 33.666 29.76C31.826 31.22 30.666 33.48 30.666 36C30.666 37.5 31.086 38.92 31.826 40.12C32.006 40.44 32.226 40.7401 32.466 41.0201L28.806 43.0401C26.526 44.3201 22.806 44.3201 20.526 43.0401L9.84601 37.12C7.42601 35.78 5.44604 32.4201 5.44604 29.6601V18.34C5.44604 15.58 7.42601 12.22 9.84601 10.88L20.526 4.96C22.806 3.68 26.526 3.68 28.806 4.96L39.486 10.88C41.906 12.22 43.886 15.58 43.886 18.34Z" stroke="#292D32" stroke-width="3" stroke-linecap="round" stroke-linejoin="round"/>
</svg>
