<svg width="24" height="25" viewBox="0 0 24 25" fill="none" xmlns="http://www.w3.org/2000/svg">
<path d="M11.16 15.0374C5.75232 15.1041 6.2587 10.6979 4.92348 11.7661C3.96937 12.5874 4.25584 13.3683 4.25584 15.0374C4.25584 16.7064 6.45897 17.7078 7.92772 17.7078C9.39647 17.7078 16.2729 17.7746 17.7416 17.7078C19.2104 17.6411 20.3807 16.8109 20.9462 15.5047C21.3069 14.6715 22.0109 12.965 21.5389 11.7661C20.6581 11.197 15.4861 14.984 11.16 15.0374Z" fill="#FC7C48"/>
<path d="M7.83935 4.34734C8.85302 4.34734 15.2192 3.7376 16.3484 4.80577C17.4776 5.87394 12.6279 10.5599 10.3902 10.8984C9.03347 11.1036 5.09654 9.01286 5.09654 7.76664C5.99093 5.89837 6.11018 4.34734 7.83935 4.34734Z" fill="#E65046"/>
<path d="M2 2.7475H3.74001C4.82001 2.7475 5.67 3.6775 5.58 4.7475L4.75 14.7075C4.61 16.3375 5.89999 17.7375 7.53999 17.7375H18.19C19.63 17.7375 20.89 16.5575 21 15.1275L21.54 7.6275C21.66 5.9675 20.4 4.61749 18.73 4.61749H5.82001" stroke="#292D32" stroke-width="1.5" stroke-miterlimit="10" stroke-linecap="round" stroke-linejoin="round"/>
<path d="M16.25 22.7475C16.9404 22.7475 17.5 22.1879 17.5 21.4975C17.5 20.8071 16.9404 20.2475 16.25 20.2475C15.5596 20.2475 15 20.8071 15 21.4975C15 22.1879 15.5596 22.7475 16.25 22.7475Z" stroke="#292D32" stroke-width="1.5" stroke-miterlimit="10" stroke-linecap="round" stroke-linejoin="round"/>
<path d="M8.25 22.7475C8.94036 22.7475 9.5 22.1879 9.5 21.4975C9.5 20.8071 8.94036 20.2475 8.25 20.2475C7.55964 20.2475 7 20.8071 7 21.4975C7 22.1879 7.55964 22.7475 8.25 22.7475Z" stroke="#292D32" stroke-width="1.5" stroke-miterlimit="10" stroke-linecap="round" stroke-linejoin="round"/>
<path d="M9 8.7475H21" stroke="#292D32" stroke-width="1.5" stroke-miterlimit="10" stroke-linecap="round" stroke-linejoin="round"/>
</svg>
