<svg width="37" height="37" viewBox="0 0 37 37" fill="none" xmlns="http://www.w3.org/2000/svg">
<path d="M16.8365 22.2714C8.725 22.3715 9.48458 15.7622 7.48175 17.3645C6.05058 18.5965 6.48029 19.7679 6.48029 22.2714C6.48029 24.775 9.78498 26.2771 11.9881 26.2771C14.1912 26.2771 24.5059 26.3773 26.709 26.2771C28.9121 26.177 30.6676 24.9318 31.5158 22.9724C32.0568 21.7226 33.1129 19.1629 32.4049 17.3645C31.0837 16.5109 23.3257 22.1913 16.8365 22.2714Z" fill="#FC7C48"/>
<path d="M11.8555 6.2364C13.3761 6.2364 22.9253 5.32179 24.6192 6.92405C26.313 8.5263 19.0384 15.5552 15.6819 16.063C13.6467 16.3708 7.74133 13.2347 7.74133 11.3654C9.08293 8.56295 9.2618 6.2364 11.8555 6.2364Z" fill="#E65046"/>
<path d="M3.09653 3.83667H5.70654C7.32654 3.83667 8.60153 5.23167 8.46653 6.83667L7.22153 21.7767C7.01153 24.2217 8.94652 26.3217 11.4065 26.3217H27.3815C29.5415 26.3217 31.4315 24.5517 31.5965 22.4067L32.4065 11.1567C32.5865 8.66668 30.6965 6.64166 28.1915 6.64166H8.82654" stroke="#292D32" stroke-width="1.8" stroke-miterlimit="10" stroke-linecap="round" stroke-linejoin="round"/>
<path d="M24.4715 33.8367C25.5071 33.8367 26.3465 32.9972 26.3465 31.9617C26.3465 30.9261 25.5071 30.0867 24.4715 30.0867C23.436 30.0867 22.5965 30.9261 22.5965 31.9617C22.5965 32.9972 23.436 33.8367 24.4715 33.8367Z" stroke="#292D32" stroke-width="1.8" stroke-miterlimit="10" stroke-linecap="round" stroke-linejoin="round"/>
<path d="M12.4715 33.8367C13.5071 33.8367 14.3465 32.9972 14.3465 31.9617C14.3465 30.9261 13.5071 30.0867 12.4715 30.0867C11.436 30.0867 10.5965 30.9261 10.5965 31.9617C10.5965 32.9972 11.436 33.8367 12.4715 33.8367Z" stroke="#292D32" stroke-width="1.8" stroke-miterlimit="10" stroke-linecap="round" stroke-linejoin="round"/>
<path d="M13.5965 12.8367H31.5965" stroke="#292D32" stroke-width="1.8" stroke-miterlimit="10" stroke-linecap="round" stroke-linejoin="round"/>
</svg>
