<svg width="53" height="53" viewBox="0 0 53 53" fill="none" xmlns="http://www.w3.org/2000/svg">
<path d="M4.87335 4.51685H8.64336C10.9834 4.51685 12.825 6.53185 12.63 8.85018L10.8317 30.4302C10.5284 33.9618 13.3233 36.9952 16.8767 36.9952H39.9517C43.0717 36.9952 45.8017 34.4385 46.04 31.3402L47.21 15.0902C47.47 11.4935 44.74 8.5685 41.1217 8.5685H13.15" stroke="#292D32" stroke-width="3" stroke-miterlimit="10" stroke-linecap="round" stroke-linejoin="round"/>
<path d="M35.7484 47.8501C37.2441 47.8501 38.4567 46.6376 38.4567 45.1418C38.4567 43.646 37.2441 42.4335 35.7484 42.4335C34.2526 42.4335 33.04 43.646 33.04 45.1418C33.04 46.6376 34.2526 47.8501 35.7484 47.8501Z" stroke="#292D32" stroke-width="3" stroke-miterlimit="10" stroke-linecap="round" stroke-linejoin="round"/>
<path d="M18.4151 47.8501C19.9108 47.8501 21.1234 46.6376 21.1234 45.1418C21.1234 43.646 19.9108 42.4335 18.4151 42.4335C16.9193 42.4335 15.7067 43.646 15.7067 45.1418C15.7067 46.6376 16.9193 47.8501 18.4151 47.8501Z" stroke="#292D32" stroke-width="3" stroke-miterlimit="10" stroke-linecap="round" stroke-linejoin="round"/>
<path d="M20.04 17.5168H46.04" stroke="#292D32" stroke-width="3" stroke-miterlimit="10" stroke-linecap="round" stroke-linejoin="round"/>
</svg>
