<svg width="18" height="20" viewBox="0 0 18 20" fill="none" xmlns="http://www.w3.org/2000/svg">
<path d="M14.54 6.1628C15.8986 6.1628 17 5.06142 17 3.7028C17 2.34418 15.8986 1.2428 14.54 1.2428C13.1814 1.2428 12.08 2.34418 12.08 3.7028C12.08 5.06142 13.1814 6.1628 14.54 6.1628Z" stroke="#292D32" stroke-width="1.5" stroke-miterlimit="10" stroke-linecap="round" stroke-linejoin="round"/>
<path d="M3.46001 6.1628C4.81863 6.1628 5.92 5.06142 5.92 3.7028C5.92 2.34418 4.81863 1.2428 3.46001 1.2428C2.10139 1.2428 1 2.34418 1 3.7028C1 5.06142 2.10139 6.1628 3.46001 6.1628Z" stroke="#292D32" stroke-width="1.5" stroke-miterlimit="10" stroke-linecap="round" stroke-linejoin="round"/>
<path d="M14.54 18.4628C15.8986 18.4628 17 17.3615 17 16.0028C17 14.6442 15.8986 13.5428 14.54 13.5428C13.1814 13.5428 12.08 14.6442 12.08 16.0028C12.08 17.3615 13.1814 18.4628 14.54 18.4628Z" stroke="#292D32" stroke-width="1.5" stroke-miterlimit="10" stroke-linecap="round" stroke-linejoin="round"/>
<path d="M3.46001 18.4628C4.81863 18.4628 5.92 17.3615 5.92 16.0028C5.92 14.6442 4.81863 13.5428 3.46001 13.5428C2.10139 13.5428 1 14.6442 1 16.0028C1 17.3615 2.10139 18.4628 3.46001 18.4628Z" stroke="#292D32" stroke-width="1.5" stroke-miterlimit="10" stroke-linecap="round" stroke-linejoin="round"/>
</svg>
