<svg width="24" height="24" viewBox="0 0 24 24" fill="none" xmlns="http://www.w3.org/2000/svg">
<path d="M17.54 8.1628C18.8986 8.1628 20 7.06142 20 5.7028C20 4.34418 18.8986 3.2428 17.54 3.2428C16.1814 3.2428 15.08 4.34418 15.08 5.7028C15.08 7.06142 16.1814 8.1628 17.54 8.1628Z" stroke="#292D32" stroke-width="1.5" stroke-miterlimit="10" stroke-linecap="round" stroke-linejoin="round"/>
<path d="M6.46001 8.1628C7.81863 8.1628 8.92 7.06142 8.92 5.7028C8.92 4.34418 7.81863 3.2428 6.46001 3.2428C5.10139 3.2428 4 4.34418 4 5.7028C4 7.06142 5.10139 8.1628 6.46001 8.1628Z" stroke="#292D32" stroke-width="1.5" stroke-miterlimit="10" stroke-linecap="round" stroke-linejoin="round"/>
<path d="M17.54 20.4628C18.8986 20.4628 20 19.3615 20 18.0028C20 16.6442 18.8986 15.5428 17.54 15.5428C16.1814 15.5428 15.08 16.6442 15.08 18.0028C15.08 19.3615 16.1814 20.4628 17.54 20.4628Z" stroke="#292D32" stroke-width="1.5" stroke-miterlimit="10" stroke-linecap="round" stroke-linejoin="round"/>
<path d="M6.46001 20.4628C7.81863 20.4628 8.92 19.3615 8.92 18.0028C8.92 16.6442 7.81863 15.5428 6.46001 15.5428C5.10139 15.5428 4 16.6442 4 18.0028C4 19.3615 5.10139 20.4628 6.46001 20.4628Z" stroke="#292D32" stroke-width="1.5" stroke-miterlimit="10" stroke-linecap="round" stroke-linejoin="round"/>
</svg>
