<svg width="26" height="26" viewBox="0 0 26 26" fill="none" xmlns="http://www.w3.org/2000/svg">
<path d="M2.52827 5.98432C1.83707 5.62958 1.83706 5.05841 2.52826 4.70367L9.47131 1.14032C10.1625 0.785577 11.2754 0.785584 11.9666 1.14032L18.9096 4.70366C19.6008 5.05841 19.6063 5.64044 18.9097 5.98432L14.8683 7.97919" stroke="black" stroke-width="1.36499" stroke-linecap="round"/>
<path d="M8.26743 20.8277C8.03657 20.6869 7.77504 20.5773 3.09385 18.0051C2.29085 17.5442 1.44884 17.3143 1.47756 16.3888L1.48292 6.21158C1.48341 5.28569 1.81774 5.10789 2.42022 4.81926" stroke="black" stroke-width="1.23164" stroke-linecap="round"/>
<path d="M2.23624 5.80212C2.23624 5.80212 3.59557 6.50794 4.32753 6.90006C5.05949 7.29218 6.00058 8.23326 6.00058 9.85402C6.00058 11.4748 6.00058 14.1935 6.00058 14.1935" stroke="black" stroke-width="1.23035" stroke-linecap="round" stroke-linejoin="round"/>
<path d="M12.8492 13.4525L11.8226 12.9497C11.2994 12.6812 11.2994 12.2488 11.8226 11.9802L17.0791 9.28246C17.6024 9.0139 18.4449 9.01389 18.9682 9.28246L24.2246 11.9802C24.7479 12.2488 24.7461 12.6776 24.2246 12.9498C24.2246 12.9498 22.9193 13.5856 22.2601 13.9297C21.764 14.1886 21.0072 14.6802 21.0072 14.6802" stroke="black" stroke-width="1.41049" stroke-linecap="round"/>
<path d="M24.3032 12.0388C24.7577 12.2574 24.9897 12.6295 24.9905 13.3306C24.9931 15.7608 24.996 18.191 24.9948 20.6212C25.0164 21.322 24.3974 21.5259 23.7755 21.8451C23.7755 21.8451 21.2293 23.1795 19.9556 23.8454C18.356 24.6815 17.7675 24.7283 16.1373 23.9185C14.8138 23.2612 12.167 21.9465 12.167 21.9465C11.541 21.6355 10.926 21.4233 10.9477 20.7226C10.9464 18.2924 10.9494 15.8622 10.9519 13.432C10.9528 12.7309 11.1848 12.3587 11.6393 12.1402" stroke="black" stroke-width="1.22826"/>
<path d="M11.6015 12.8118C11.6015 12.8118 12.6307 13.3462 13.1848 13.643C13.739 13.9399 14.4514 14.6524 14.4514 15.8794C14.4514 17.1065 14.4514 19.1647 14.4514 19.1647" stroke="black" stroke-width="1.23035" stroke-linecap="round" stroke-linejoin="round"/>
<path d="M16.5345 15.3929C17.0886 15.6898 17.5964 16.255 17.6348 17.4814L17.7087 19.845C17.7392 20.8191 19.4822 20.7305 19.4822 19.7927V17.3173C19.4822 16.0103 20.3755 14.9678 21.2381 14.4842" stroke="black" stroke-width="1.14832" stroke-linecap="round" stroke-linejoin="round"/>
<path d="M18.194 4.30334C19.1028 4.90231 19.7926 4.99923 19.7951 5.52691C19.796 5.73094 19.8361 7.3439 19.8361 7.61574" stroke="black" stroke-width="1.0663" stroke-linecap="round" stroke-linejoin="round"/>
</svg>
