<svg width="37" height="37" viewBox="0 0 37 37" fill="none" xmlns="http://www.w3.org/2000/svg">
<path d="M23.9892 34.3173C21.2568 32.2132 16.716 31.2604 15.3094 29.315C15.5522 27.743 15.3094 21.8612 16.1649 18.4208C17.9261 16.8029 23.9727 14.1404 24.4087 13.9838C25.6583 15.0466 17.3992 24.4161 17.3992 26.5757C17.3992 29.1879 24.9058 31.3593 23.9892 34.3173Z" fill="#E65046"/>
<path d="M11.2889 28.919C8.55643 26.8149 4.49364 26.4576 3.08713 24.5123C3.44876 22.17 2.18647 9.98901 3.51251 9.51256C4.07553 8.38282 15.1426 1.70995 15.1426 3.86957C15.1426 6.02152 4.23766 20.1884 5.43939 21.762C7.01707 23.828 11.7188 27.5316 11.2889 28.919Z" fill="#FC7C48"/>
<path d="M4.3874 10.0037C3.49303 9.54464 3.49302 8.80558 4.38738 8.34657L13.3712 3.73584C14.2656 3.27682 15.7056 3.27683 16.6 3.73584L25.5838 8.34657C26.4782 8.80558 26.4852 9.55869 25.5838 10.0036L20.3546 12.5849" stroke="#292D32" stroke-width="1.7662" stroke-linecap="round"/>
<path d="M11.8135 29.2099C11.5148 29.0277 11.1764 28.8859 5.11923 25.5577C4.0802 24.9613 2.99069 24.6638 3.02786 23.4663L3.03479 10.2976C3.03542 9.09961 3.46803 8.86954 4.2476 8.49608" stroke="#292D32" stroke-width="1.59366" stroke-linecap="round"/>
<path d="M4.00954 9.76782C4.00954 9.76782 5.76843 10.6811 6.71553 11.1885C7.66264 11.6959 8.88034 12.9136 8.88034 15.0107C8.88034 17.1079 8.88034 20.6257 8.88034 20.6257" stroke="#292D32" stroke-width="1.59199" stroke-linecap="round" stroke-linejoin="round"/>
<path d="M17.7421 19.6669L16.4137 19.0164C15.7366 18.6689 15.7366 18.1093 16.4137 17.7618L23.2151 14.2712C23.8923 13.9237 24.9825 13.9236 25.6596 14.2711L32.461 17.7618C33.1381 18.1093 33.1357 18.6642 32.461 19.0164C32.461 19.0164 30.772 19.8391 29.919 20.2843C29.2771 20.6193 28.2979 21.2555 28.2979 21.2555" stroke="#292D32" stroke-width="1.82508" stroke-linecap="round"/>
<path d="M32.5626 17.8378C33.1507 18.1206 33.451 18.6021 33.4521 19.5093C33.4554 22.6538 33.4592 25.7983 33.4576 28.9428C33.4856 29.8495 32.6846 30.1134 31.8799 30.5264C31.8799 30.5264 28.5853 32.2531 26.9371 33.1146C24.8674 34.1966 24.106 34.2571 21.9965 33.2093C20.2841 32.3587 16.8592 30.6576 16.8592 30.6576C16.0492 30.2552 15.2535 29.9807 15.2815 29.074C15.2799 25.9295 15.2837 22.785 15.287 19.6404C15.2881 18.7333 15.5884 18.2517 16.1765 17.9689" stroke="#292D32" stroke-width="1.58929"/>
<path d="M16.1276 18.8379C16.1276 18.8379 17.4592 19.5293 18.1762 19.9134C18.8933 20.2976 19.8152 21.2195 19.8152 22.8072C19.8152 24.3949 19.8152 27.0581 19.8152 27.0581" stroke="#292D32" stroke-width="1.59199" stroke-linecap="round" stroke-linejoin="round"/>
<path d="M22.5105 22.1776C23.2275 22.5618 23.8845 23.2931 23.9342 24.88L24.0298 27.9384C24.0693 29.1988 26.3246 29.0841 26.3246 27.8707V24.6677C26.3246 22.9765 27.4805 21.6276 28.5967 21.0018" stroke="#292D32" stroke-width="1.48586" stroke-linecap="round" stroke-linejoin="round"/>
<path d="M24.6578 7.82849C25.8337 8.60352 26.7263 8.72892 26.7296 9.4117C26.7307 9.67571 26.7825 11.7628 26.7825 12.1145" stroke="#292D32" stroke-width="1.37972" stroke-linecap="round" stroke-linejoin="round"/>
</svg>
