<svg width="49" height="48" viewBox="0 0 49 48" fill="none" xmlns="http://www.w3.org/2000/svg">
<path d="M24.276 28H26.276C28.476 28 30.276 26.2 30.276 24V4H12.276C9.276 4 6.65602 5.65998 5.29602 8.09998" stroke="#292D32" stroke-width="3" stroke-linecap="round" stroke-linejoin="round"/>
<path d="M4.276 34C4.276 37.32 6.956 40 10.276 40H12.276C12.276 37.8 14.076 36 16.276 36C18.476 36 20.276 37.8 20.276 40H28.276C28.276 37.8 30.076 36 32.276 36C34.476 36 36.276 37.8 36.276 40H38.276C41.596 40 44.276 37.32 44.276 34V28H38.276C37.176 28 36.276 27.1 36.276 26V20C36.276 18.9 37.176 18 38.276 18H40.856L37.436 12.02C36.716 10.78 35.3961 10 33.9561 10H30.276V24C30.276 26.2 28.476 28 26.276 28H24.276" stroke="#292D32" stroke-width="3" stroke-linecap="round" stroke-linejoin="round"/>
<path d="M16.276 44C18.4851 44 20.276 42.2091 20.276 40C20.276 37.7909 18.4851 36 16.276 36C14.0669 36 12.276 37.7909 12.276 40C12.276 42.2091 14.0669 44 16.276 44Z" stroke="#292D32" stroke-width="3" stroke-linecap="round" stroke-linejoin="round"/>
<path d="M32.276 44C34.4851 44 36.276 42.2091 36.276 40C36.276 37.7909 34.4851 36 32.276 36C30.0669 36 28.276 37.7909 28.276 40C28.276 42.2091 30.0669 44 32.276 44Z" stroke="#292D32" stroke-width="3" stroke-linecap="round" stroke-linejoin="round"/>
<path d="M44.276 24V28H38.276C37.176 28 36.276 27.1 36.276 26V20C36.276 18.9 37.176 18 38.276 18H40.856L44.276 24Z" stroke="#292D32" stroke-width="3" stroke-linecap="round" stroke-linejoin="round"/>
<path d="M4.276 16H16.276" stroke="#292D32" stroke-width="3" stroke-linecap="round" stroke-linejoin="round"/>
<path d="M4.276 22H12.276" stroke="#292D32" stroke-width="3" stroke-linecap="round" stroke-linejoin="round"/>
<path d="M4.276 28H8.276" stroke="#292D32" stroke-width="3" stroke-linecap="round" stroke-linejoin="round"/>
</svg>
