<svg width="25" height="24" viewBox="0 0 25 24" fill="none" xmlns="http://www.w3.org/2000/svg">
<path d="M6.29633 2.09998H19.4963C20.5963 2.09998 21.4963 2.99998 21.4963 4.09998V6.29998C21.4963 7.09998 20.9963 8.09998 20.4963 8.59998L16.1963 12.4C15.5963 12.9 15.1963 13.9 15.1963 14.7V19C15.1963 19.6 14.7963 20.4 14.2963 20.7L12.8963 21.6C11.5963 22.4 9.79633 21.5 9.79633 19.9V14.6C9.79633 13.9 9.39633 13 8.99633 12.5L5.19633 8.49998C4.69633 7.99998 4.29633 7.09998 4.29633 6.49998V4.19998C4.29633 2.99998 5.19633 2.09998 6.29633 2.09998Z" stroke="#292D32" stroke-width="1.5" stroke-miterlimit="10" stroke-linecap="round" stroke-linejoin="round"/>
<path d="M11.8263 2.09998L6.89633 9.99998" stroke="#292D32" stroke-width="1.5" stroke-miterlimit="10" stroke-linecap="round" stroke-linejoin="round"/>
</svg>
