<?xml version="1.0" encoding="UTF-8" standalone="no"?>
<!-- Created with Inkscape (http://www.inkscape.org/) -->

<svg
   width="37.719597mm"
   height="36.024067mm"
   viewBox="0 0 37.719596 36.024067"
   version="1.1"
   id="svg1"
   xml:space="preserve"
   xmlns="http://www.w3.org/2000/svg"
   xmlns:svg="http://www.w3.org/2000/svg"><defs
     id="defs1" /><g
     id="layer1"
     transform="translate(-575.68843,-75.235397)"><ellipse
       style="fill:none;fill-opacity:1;stroke:#e65046;stroke-width:1.55403;stroke-dasharray:none;stroke-opacity:1"
       id="path7-62-5"
       cx="592.58069"
       cy="87.852524"
       rx="1.7631006"
       ry="1.6943539" /><ellipse
       style="fill:#fc7c48;fill-opacity:1;stroke:none;stroke-width:1.76531;stroke-dasharray:none;stroke-opacity:1"
       id="path7-61-9-3"
       cx="588.42377"
       cy="83.383438"
       rx="2.0028064"
       ry="1.9247131" /><ellipse
       style="fill:#2557b2;fill-opacity:1;stroke:none;stroke-width:1.0426;stroke-dasharray:none;stroke-opacity:1"
       id="path7-61-8-0-5"
       cx="603.19769"
       cy="87.815231"
       rx="1.1828674"
       ry="1.1367451" /><ellipse
       style="fill:none;fill-opacity:1;stroke:#2557b2;stroke-width:1.76531;stroke-dasharray:none;stroke-opacity:1"
       id="path7-6-8-6"
       cx="582.16101"
       cy="92.63176"
       rx="2.0028064"
       ry="1.9247131" /><ellipse
       style="fill:none;fill-opacity:1;stroke:#fc7c48;stroke-width:1.2531;stroke-dasharray:none;stroke-opacity:1"
       id="path7-7-1-2"
       cx="609.0907"
       cy="91.820145"
       rx="1.4216895"
       ry="1.366255" /><ellipse
       style="fill:none;fill-opacity:1;stroke:#2557b2;stroke-width:1.76531;stroke-dasharray:none;stroke-opacity:1"
       id="path7-59-31-9"
       cx="598.41119"
       cy="78.597977"
       rx="2.0028064"
       ry="1.9247131" /><path
       style="fill:none;fill-opacity:1;stroke:#fc7c48;stroke-width:1.76531;stroke-dasharray:none;stroke-opacity:1"
       d="m 576.3334,87.205431 c 0,0 1.48072,1.5847 4.71753,0.82347 3.23681,-0.76124 5.53821,-0.71616 7.4365,0.017"
       id="path14-1-1" /><path
       style="fill:none;fill-opacity:1;stroke:#fc7c48;stroke-width:1.76531;stroke-dasharray:none;stroke-opacity:1"
       d="m 605.58368,85.108441 c 0,0 4.00543,2.16 4.74642,-0.28051 0.90993,-2.9969 -3.1903,-0.97497 -4.1292,-4.99098"
       id="path14-3-0-2" /><path
       style="fill:none;fill-opacity:1;stroke:#fc7c48;stroke-width:1.76531;stroke-dasharray:none;stroke-opacity:1"
       d="m 601.55724,92.142201 c 0,0 -2.52233,-0.65845 -2.37058,-4.00519 0.15629,-3.44666 -0.44614,-4.45758 -1.72349,-4.69359"
       id="path14-3-8-3-70" /><path
       style="fill:none;fill-opacity:1;stroke:#e65046;stroke-width:1.76531;stroke-dasharray:none;stroke-opacity:1"
       d="m 599.94191,95.547201 c 0,0 2.81978,1.61782 4.41981,-1.311 1.60007,-2.9288 0.80047,-4.81792 3.79949,-6.10124"
       id="path15-40-9" /><path
       style="fill:none;fill-opacity:1;stroke:#e65046;stroke-width:1.69652;stroke-dasharray:none;stroke-opacity:1"
       d="m 586.84875,92.559841 c 0,0 1.03967,3.00774 3.90629,1.6647 2.86662,-1.34298 3.41833,-3.32985 6.30194,-2.51244"
       id="path15-6-3-3" /><path
       style="fill:none;fill-opacity:1;stroke:#2557b2;stroke-width:1.76531;stroke-dasharray:none;stroke-opacity:1"
       d="m 582.86603,79.366641 c 0,0 0.66664,-2.21051 5.37392,-0.8981 4.70725,1.31242 5.47722,2.55801 10.59399,2.02901"
       id="path16-9-6" /><path
       style="fill:none;fill-opacity:1;stroke:#e65046;stroke-width:1.76531;stroke-dasharray:none;stroke-opacity:1"
       d="m 585.62197,85.057181 c -0.40626,-0.13037 -2.47706,-0.54663 -3.51202,-1.71517 -1.03497,-1.16852 -1.28472,-2.70053 -1.28472,-2.70053"
       id="path17-8-9-0" /><path
       style="fill:#fc7c48;fill-opacity:1;stroke:#2557b2;stroke-width:1.76531;stroke-dasharray:none;stroke-opacity:1"
       d="m 606.68505,94.988861 0.31704,1.88646"
       id="path18-6-6" /><path
       style="fill:#000000;fill-opacity:1;stroke:#2557b2;stroke-width:1.76531;stroke-dasharray:none;stroke-opacity:1"
       d="m 586.27492,90.925651 2.62291,-0.67729"
       id="path18-0-9-2" /><path
       style="fill:#fc7c48;fill-opacity:1;stroke:#2557b2;stroke-width:1.76531;stroke-dasharray:none;stroke-opacity:1"
       d="m 592.28945,96.055781 c 1.87865,-1.018 4.01998,-1.2411 6.07922,-1.56203"
       id="path18-0-6-33-6" /><path
       style="fill:#fc7c48;fill-opacity:1;stroke:#e65046;stroke-width:1.76531;stroke-dasharray:none;stroke-opacity:1"
       d="m 595.44,82.243831 -0.3617,2.58681"
       id="path18-0-4-80-1" /><path
       style="fill:#fc7c48;fill-opacity:1;stroke:#e65046;stroke-width:1.76531;stroke-dasharray:none;stroke-opacity:1"
       d="m 589.80023,76.116971 4.69002,0.23213"
       id="path18-0-4-8-5-8" /><path
       style="fill:none;fill-opacity:1;stroke:#e65046;stroke-width:1.76531;stroke-dasharray:none;stroke-opacity:1"
       d="m 601.23907,85.219941 c 0,0 2.13491,-0.27539 2.59633,-1.36896 0.46142,-1.09357 -0.30781,-2.02725 -2.22761,-1.66064"
       id="path19-6-7" /><path
       style="fill:none;fill-opacity:1;stroke:#2557b2;stroke-width:1.76531;stroke-dasharray:none;stroke-opacity:1"
       d="m 609.3799,88.289451 c 0.58688,-0.0319 1.95676,0.55421 2.50196,-0.0403 0.5452,-0.5945 0.42368,-1.65273 0.42368,-1.65273"
       id="path20-6-9" /><path
       id="path7-62-4-2"
       style="fill:none;stroke:#e65046;stroke-width:1.76531"
       d="m 597.39918,100.5324 c -0.95137,0.56427 -2.1622,0.28054 -2.70446,-0.633731 -0.54227,-0.91428 -0.21063,-2.112868 0.74074,-2.677138 0.95137,-0.56427 2.1622,-0.28054 2.70447,0.63374 0.26468,0.44625 0.32116,0.960228 0.199,1.435128" /><path
       id="path7-62-4-9-0"
       style="fill:none;stroke:#fc7c48;stroke-width:1.5;stroke-dasharray:none;stroke-opacity:1"
       d="m 607.2035,105.08252 c 0.1009,-0.65195 0.69063,-1.10184 1.31715,-1.00485 0.62653,0.097 1.05262,0.70412 0.95169,1.35607 -0.10091,0.65195 -0.69062,1.10184 -1.31716,1.00485 -0.3058,-0.0473 -0.56385,-0.21621 -0.73618,-0.45251" /><ellipse
       style="fill:#fc7c48;fill-opacity:1;stroke:none;stroke-width:1.76531;stroke-dasharray:none;stroke-opacity:1"
       id="path7-61-9-6-2"
       cx="-599.97595"
       cy="-103.62344"
       transform="scale(-1)"
       rx="2.0028064"
       ry="1.9247131" /><ellipse
       style="fill:#e65046;fill-opacity:1;stroke:none;stroke-width:1.0531;stroke-dasharray:none;stroke-opacity:1"
       id="path7-61-5-9-2-3"
       cx="-577.24225"
       cy="-92.089951"
       transform="scale(-1)"
       rx="1.194775"
       ry="1.1481884" /><ellipse
       style="fill:#2557b2;fill-opacity:1;stroke:none;stroke-width:1.0426;stroke-dasharray:none;stroke-opacity:1"
       id="path7-61-8-0-6-7"
       cx="-585.80511"
       cy="-98.933029"
       transform="scale(-1)"
       rx="1.1828674"
       ry="1.1367451" /><ellipse
       style="fill:none;fill-opacity:1;stroke:#2557b2;stroke-width:1.68986;stroke-dasharray:none;stroke-opacity:1"
       id="path7-59-31-6-5"
       cx="-590.41357"
       cy="-107.86125"
       transform="scale(-1)"
       rx="1.7984163"
       ry="1.9641591" /><path
       style="fill:none;fill-opacity:1;stroke:#fc7c48;stroke-width:1.76531;stroke-dasharray:none;stroke-opacity:1"
       d="m 612.66944,99.542779 c 0,0 -1.48071,-1.584698 -4.71752,-0.82347 -3.23682,0.76124 -5.53822,0.71616 -7.43651,-0.017"
       id="path14-1-9-9" /><path
       style="fill:none;fill-opacity:1;stroke:#fc7c48;stroke-width:1.76531;stroke-dasharray:none;stroke-opacity:1"
       d="m 583.64837,101.38226 c 0,0 -4.00542,-2.160001 -4.74642,0.2805 -0.90993,2.9969 3.1903,0.97497 4.1292,4.99098"
       id="path14-3-0-8-2" /><path
       style="fill:none;fill-opacity:1;stroke:#fc7c48;stroke-width:1.55262;stroke-dasharray:none;stroke-opacity:1"
       d="m 587.15431,96.880801 c 0,0 2.62282,0.31511 2.65574,2.838218 0.0339,2.598441 0.70841,3.314511 2.03116,3.400951"
       id="path14-3-8-3-7-2" /><path
       style="fill:none;fill-opacity:1;stroke:#2557b2;stroke-width:1.68986;stroke-dasharray:none;stroke-opacity:1"
       d="m 604.37237,107.07681 c 0,0 -0.59861,2.25582 -4.8255,0.91651 -4.22687,-1.33932 -4.91826,-2.61044 -9.51286,-2.07059"
       id="path16-9-2-8" /><path
       style="fill:none;fill-opacity:1;stroke:#e65046;stroke-width:1.61294;stroke-dasharray:none;stroke-opacity:1"
       d="m 608.19238,100.34317 c -0.18525,0.67113 -0.57292,2.09098 -2.47667,2.42611 -2.07414,0.36512 -2.54617,2.64729 -2.54617,2.64729"
       id="path17-8-9-9-9" /><path
       style="fill:#fc7c48;fill-opacity:1;stroke:#e65046;stroke-width:1.76531;stroke-dasharray:none;stroke-opacity:1"
       d="m 593.56284,104.50438 0.36171,-2.58681"
       id="path18-0-4-80-7-7" /><path
       style="fill:#fc7c48;fill-opacity:1;stroke:#e65046;stroke-width:1.76531;stroke-dasharray:none;stroke-opacity:1"
       d="m 598.6861,110.37789 -4.69001,-0.23213"
       id="path18-0-4-8-5-6-3" /><path
       style="fill:none;fill-opacity:1;stroke:#e65046;stroke-width:1.76531;stroke-dasharray:none;stroke-opacity:1"
       d="m 587.9069,102.18211 c 0,0 -2.13492,0.27539 -2.59633,1.36896 -0.46142,1.09357 0.30781,2.02725 2.22761,1.66064"
       id="path19-6-1-6" /><path
       style="fill:none;fill-opacity:1;stroke:#e65046;stroke-width:1.2;stroke-dasharray:none;stroke-opacity:1"
       d="m 610.01944,96.174791 c 0,0 1.50866,-0.8545 2.3108,-1.72931 0.38135,-0.41589 0.86652,-1.85985 -0.0319,-3.30706"
       id="path19-6-1-9-1" /><path
       style="fill:none;fill-opacity:1;stroke:#2557b2;stroke-width:1.76531;stroke-dasharray:none;stroke-opacity:1"
       d="m 582.59807,98.385061 c -0.51919,-0.26488 -1.37495,-1.44822 -2.16176,-1.21117 -0.78682,0.23707 -1.25334,1.20272 -1.25334,1.20272"
       id="path20-6-3-2" /></g></svg>
