<svg width="37" height="37" viewBox="0 0 37 37" fill="none" xmlns="http://www.w3.org/2000/svg">
<path d="M15.0481 23.3521C6.93664 23.4522 8.63906 23.4523 6.63623 25.0545C5.20506 26.2866 5.63478 27.4579 5.63478 29.9615C5.63478 32.465 8.93947 33.9672 11.1426 33.9672C13.3457 33.9672 23.6603 34.0673 25.8635 33.9672C28.0666 33.867 30.6703 32.3649 30.6703 30.6625V23.3521C28.1667 23.3187 21.5374 23.272 15.0481 23.3521Z" fill="#FC7C48"/>
<path d="M6.29991 5.50103C6.91937 4.17357 8.57924 3.53977 11.588 3.98223C9.28676 6.05336 9.04322 9.33527 9.32124 11.8128C9.59926 14.2904 10.3212 18.9744 10.0994 20.895C9.85342 23.0243 10.2947 23.9555 10.2947 23.9555C10.2947 23.9555 7.93856 24.7925 6.29992 24.7925C4.09452 24.7925 5.14952 16.1412 5.14952 14.4388C5.14952 13.0769 6.29991 7.37035 6.29991 5.50103Z" fill="#E65046"/>
<path d="M5.34653 27.8367V11.3367C5.34653 5.33667 6.84653 3.83667 12.8465 3.83667H23.3465C29.3465 3.83667 30.8465 5.33667 30.8465 11.3367V26.3367C30.8465 26.5467 30.8465 26.7567 30.8315 26.9667" stroke="#292D32" stroke-width="1.7" stroke-linecap="round" stroke-linejoin="round"/>
<path d="M9.62153 23.3367H30.8465V28.5867C30.8465 31.4817 28.4915 33.8367 25.5965 33.8367H10.5965C7.70153 33.8367 5.34653 31.4817 5.34653 28.5867V27.6117C5.34653 25.2567 7.26653 23.3367 9.62153 23.3367Z" stroke="#292D32" stroke-width="1.7" stroke-linecap="round" stroke-linejoin="round"/>
<path d="M12.0965 11.3367H24.0965" stroke="#292D32" stroke-width="1.7" stroke-linecap="round" stroke-linejoin="round"/>
<path d="M12.0965 16.5867H19.5965" stroke="#292D32" stroke-width="1.7" stroke-linecap="round" stroke-linejoin="round"/>
</svg>
