<svg width="25" height="24" viewBox="0 0 25 24" fill="none" xmlns="http://www.w3.org/2000/svg">
<path d="M10.7234 5.66998L7.3034 7.74999L5.7434 5.19C5.1734 4.25 5.4734 3.01 6.4134 2.44C7.3534 1.87 8.5934 2.16998 9.1634 3.10998L10.7234 5.66998Z" stroke="#292D32" stroke-width="1.5" stroke-linecap="round" stroke-linejoin="round"/>
<path d="M12.6734 9.15997L9.5134 11.08C7.6734 12.2 7.11339 14.46 8.00339 16.26L10.0534 20.44C10.7134 21.79 12.3134 22.26 13.5934 21.47L20.0234 17.56C21.3134 16.78 21.6234 15.15 20.7334 13.94L17.9634 10.2C16.7634 8.58001 14.5134 8.03997 12.6734 9.15997Z" stroke="#292D32" stroke-width="1.5" stroke-linecap="round" stroke-linejoin="round"/>
<path d="M11.61 5.09797L6.48544 8.21857L8.56584 11.635L13.6904 8.51437L11.61 5.09797Z" stroke="#292D32" stroke-width="1.5" stroke-linecap="round" stroke-linejoin="round"/>
<path d="M15.1634 16.81L16.8134 19.52" stroke="#292D32" stroke-width="1.5" stroke-linecap="round" stroke-linejoin="round"/>
<path d="M12.6034 18.37L14.2534 21.08" stroke="#292D32" stroke-width="1.5" stroke-linecap="round" stroke-linejoin="round"/>
<path d="M17.7234 15.25L19.3734 17.96" stroke="#292D32" stroke-width="1.5" stroke-linecap="round" stroke-linejoin="round"/>
</svg>
