<svg width="37" height="37" viewBox="0 0 37 37" fill="none" xmlns="http://www.w3.org/2000/svg">
<path d="M21.0394 13.832C12.9279 13.9321 12.2556 19.2094 10.2528 20.8116C9.67122 23.3496 13.4511 34.648 17.5496 33.9247C18.8908 33.688 30.8742 25.9592 30.8742 24.0898C29.288 21.2874 27.5286 13.7519 21.0394 13.832Z" fill="#FC7C48"/>
<path d="M9.82988 3.99725C8.03207 3.99725 8.60726 5.30314 6.60443 6.90539C6.02284 9.44341 8.77248 12.0872 9.82988 11.6113C11.0718 11.0524 14.6944 10.9955 14.6944 9.1262C13.1082 6.3238 12.8967 3.99725 9.82988 3.99725Z" fill="#E65046"/>
<path d="M14.9015 9.3417L9.77153 12.4617L7.43154 8.62173C6.57654 7.21173 7.02653 5.35173 8.43653 4.49673C9.84653 3.64173 11.7065 4.0917 12.5615 5.5017L14.9015 9.3417Z" stroke="#292D32" stroke-width="1.8" stroke-linecap="round" stroke-linejoin="round"/>
<path d="M17.8265 14.5767L13.0865 17.4567C10.3265 19.1367 9.48652 22.5267 10.8215 25.2267L13.8965 31.4967C14.8865 33.5217 17.2865 34.2267 19.2065 33.0417L28.8515 27.1767C30.7865 26.0067 31.2515 23.5617 29.9165 21.7467L25.7615 16.1367C23.9615 13.7067 20.5865 12.8967 17.8265 14.5767Z" stroke="#292D32" stroke-width="1.8" stroke-linecap="round" stroke-linejoin="round"/>
<path d="M16.2315 8.48365L8.54459 13.1646L11.6652 18.2892L19.3521 13.6083L16.2315 8.48365Z" stroke="#292D32" stroke-width="1.8" stroke-linecap="round" stroke-linejoin="round"/>
<path d="M21.5615 26.0517L24.0365 30.1167" stroke="#292D32" stroke-width="1.8" stroke-linecap="round" stroke-linejoin="round"/>
<path d="M17.7215 28.3917L20.1965 32.4568" stroke="#292D32" stroke-width="1.8" stroke-linecap="round" stroke-linejoin="round"/>
<path d="M25.4015 23.7117L27.8765 27.7767" stroke="#292D32" stroke-width="1.8" stroke-linecap="round" stroke-linejoin="round"/>
</svg>
