<svg width="48" height="49" viewBox="0 0 48 49" fill="none" xmlns="http://www.w3.org/2000/svg">
<path d="M6.02002 22.6234V31.6034C6.02002 40.5834 9.62002 44.1834 18.6 44.1834H29.38C38.36 44.1834 41.96 40.5834 41.96 31.6034V22.6234" stroke="#292D32" stroke-width="3" stroke-linecap="round" stroke-linejoin="round"/>
<path d="M24 24.1835C27.66 24.1835 30.36 21.2035 30 17.5435L28.68 4.18347H19.34L18 17.5435C17.64 21.2035 20.34 24.1835 24 24.1835Z" stroke="#292D32" stroke-width="3" stroke-linecap="round" stroke-linejoin="round"/>
<path d="M36.62 24.1835C40.66 24.1835 43.62 20.9035 43.22 16.8835L42.66 11.3835C41.94 6.18347 39.94 4.18347 34.7 4.18347H28.6L30 18.2035C30.34 21.5035 33.32 24.1835 36.62 24.1835Z" stroke="#292D32" stroke-width="3" stroke-linecap="round" stroke-linejoin="round"/>
<path d="M11.28 24.1835C14.58 24.1835 17.56 21.5035 17.88 18.2035L18.32 13.7835L19.28 4.18347H13.18C7.94001 4.18347 5.94001 6.18347 5.22001 11.3835L4.68001 16.8835C4.28001 20.9035 7.24001 24.1835 11.28 24.1835Z" stroke="#292D32" stroke-width="3" stroke-linecap="round" stroke-linejoin="round"/>
<path d="M24 34.1835C20.66 34.1835 19 35.8435 19 39.1835V44.1835H29V39.1835C29 35.8435 27.34 34.1835 24 34.1835Z" stroke="#292D32" stroke-width="3" stroke-linecap="round" stroke-linejoin="round"/>
</svg>
