<svg width="73" height="42" viewBox="0 0 73 42" fill="none" xmlns="http://www.w3.org/2000/svg">
<path d="M26.7919 0.410278C26.7493 4.42094 26.7279 8.23961 26.7279 11.8663C26.7279 15.4503 26.7279 19.0769 26.7279 22.7463C26.7279 24.7516 26.7279 26.6076 26.7279 28.3143C26.7279 29.9783 26.7279 31.7276 26.7279 33.5623C26.7706 35.3543 26.8133 37.4876 26.8559 39.9623H17.6399C17.7679 37.5729 17.8319 35.4609 17.8319 33.6263C17.8746 31.7916 17.8959 29.7863 17.8959 27.6103C17.8959 25.3916 17.8746 23.2583 17.8319 21.2103C17.7893 19.1623 17.7679 16.7516 17.7679 13.9783C15.8479 16.8796 14.2479 19.2263 12.9679 21.0183C11.6879 22.8103 10.4293 24.4743 9.19193 26.0103C10.3013 26.2236 11.8799 26.3729 13.9279 26.4583C16.0186 26.5009 18.0666 26.5223 20.0719 26.5223C21.9919 26.5223 23.5279 26.5223 24.6799 26.5223C25.8746 26.4796 26.8986 26.4583 27.7519 26.4583C28.6053 26.4156 29.4373 26.3729 30.2479 26.3303C31.1013 26.2449 32.1253 26.1383 33.3199 26.0103V31.2583C31.6133 31.1729 29.9066 31.1089 28.1999 31.0663C26.4933 31.0236 24.6373 31.0023 22.6319 31.0023C20.6266 31.0023 18.3013 31.0023 15.6559 31.0023C14.1199 31.0023 12.7546 31.0023 11.5599 31.0023C10.4079 31.0023 9.12793 31.0236 7.71993 31.0663C6.31193 31.1089 4.45593 31.1729 2.15193 31.2583L0.679932 27.9303C4.4346 23.7489 8.2746 19.3969 12.1999 14.8743C16.1253 10.3516 19.8373 5.53028 23.3359 0.410278H26.7919ZM26.7919 36.1223L32.9999 37.7223L31.9119 40.6023C31.1013 40.5596 30.2266 40.5383 29.2879 40.5383C28.3493 40.4956 27.1759 40.4743 25.7679 40.4743C24.3599 40.4316 22.5253 40.4103 20.2639 40.4103C19.3253 40.4103 18.1946 40.4316 16.8719 40.4743C15.5919 40.4743 14.2906 40.4956 12.9679 40.5383C11.6879 40.5383 10.5786 40.5596 9.63993 40.6023L8.55193 37.7223L17.8319 36.1223H26.7919Z" fill="#292D32"/>
<path d="M56.3199 28.6023H57.8199C59.4699 28.6023 60.8199 27.2523 60.8199 25.6023V10.6023H47.3199C45.0699 10.6023 43.105 11.8473 42.085 13.6773" stroke="#292D32" stroke-width="2" stroke-linecap="round" stroke-linejoin="round"/>
<path d="M41.3198 33.1023C41.3198 35.5923 43.3298 37.6023 45.8198 37.6023H47.3198C47.3198 35.9523 48.6698 34.6023 50.3198 34.6023C51.9698 34.6023 53.3198 35.9523 53.3198 37.6023H59.3198C59.3198 35.9523 60.6698 34.6023 62.3198 34.6023C63.9698 34.6023 65.3198 35.9523 65.3198 37.6023H66.8198C69.3098 37.6023 71.3198 35.5923 71.3198 33.1023V28.6023H66.8198C65.9948 28.6023 65.3198 27.9273 65.3198 27.1023V22.6023C65.3198 21.7773 65.9948 21.1023 66.8198 21.1023H68.7548L66.1898 16.6173C65.6498 15.6873 64.6599 15.1023 63.5799 15.1023H60.8198V25.6023C60.8198 27.2523 59.4698 28.6023 57.8198 28.6023H56.3198" stroke="#292D32" stroke-width="2" stroke-linecap="round" stroke-linejoin="round"/>
<path d="M50.3198 40.6023C51.9767 40.6023 53.3198 39.2591 53.3198 37.6023C53.3198 35.9454 51.9767 34.6023 50.3198 34.6023C48.663 34.6023 47.3198 35.9454 47.3198 37.6023C47.3198 39.2591 48.663 40.6023 50.3198 40.6023Z" stroke="#292D32" stroke-width="2" stroke-linecap="round" stroke-linejoin="round"/>
<path d="M62.3198 40.6023C63.9767 40.6023 65.3198 39.2591 65.3198 37.6023C65.3198 35.9454 63.9767 34.6023 62.3198 34.6023C60.663 34.6023 59.3198 35.9454 59.3198 37.6023C59.3198 39.2591 60.663 40.6023 62.3198 40.6023Z" stroke="#292D32" stroke-width="2" stroke-linecap="round" stroke-linejoin="round"/>
<path d="M71.3198 25.6023V28.6023H66.8198C65.9948 28.6023 65.3198 27.9273 65.3198 27.1023V22.6023C65.3198 21.7773 65.9948 21.1023 66.8198 21.1023H68.7548L71.3198 25.6023Z" stroke="#292D32" stroke-width="2" stroke-linecap="round" stroke-linejoin="round"/>
<path d="M41.3198 19.6023H50.3198" stroke="#292D32" stroke-width="2" stroke-linecap="round" stroke-linejoin="round"/>
<path d="M41.3198 24.1023H47.3198" stroke="#292D32" stroke-width="2" stroke-linecap="round" stroke-linejoin="round"/>
<path d="M41.3198 28.6023H44.3198" stroke="#292D32" stroke-width="2" stroke-linecap="round" stroke-linejoin="round"/>
</svg>
