<svg width="71" height="41" viewBox="0 0 71 41" fill="none" xmlns="http://www.w3.org/2000/svg">
<path d="M0.184082 11.0023C2.27475 7.58898 4.72808 4.92231 7.54408 3.00231C10.3601 1.08231 13.4321 0.122314 16.7601 0.122314C18.7227 0.122314 20.6001 0.48498 22.3921 1.21031C24.2268 1.89298 25.7201 2.98098 26.8721 4.47431C28.0668 5.96765 28.6641 7.90898 28.6641 10.2983C28.6641 11.5783 28.4934 12.8156 28.1521 14.0103C27.8108 15.1623 27.1921 16.421 26.2961 17.7863C25.4001 19.109 24.0988 20.645 22.3921 22.3943C20.6854 24.1436 18.4667 26.2343 15.7361 28.6663C13.0481 31.0556 9.74142 33.957 5.81608 37.3703L6.77608 33.5943C7.62942 33.637 8.50408 33.6583 9.40008 33.6583C10.3387 33.6583 11.2987 33.6583 12.2801 33.6583C13.7734 33.6583 15.4374 33.637 17.2721 33.5943C19.1494 33.5516 21.0481 33.4876 22.9681 33.4023C24.8881 33.317 26.6801 33.2103 28.3441 33.0823L29.3681 40.3783C27.0641 40.293 24.7174 40.229 22.3281 40.1863C19.9814 40.1436 17.4641 40.1223 14.7761 40.1223C12.7281 40.1223 10.9361 40.1436 9.40008 40.1863C7.90675 40.1863 6.52008 40.2076 5.24008 40.2503C4.00275 40.2503 2.70142 40.293 1.33608 40.3783L0.184082 37.7543C3.98142 33.8716 7.13875 30.6503 9.65608 28.0903C12.1734 25.4876 14.1787 23.3116 15.6721 21.5623C17.1654 19.813 18.2107 18.3196 18.8081 17.0823C19.4481 15.8023 19.7681 14.5223 19.7681 13.2423C19.7681 11.2796 19.1281 9.70098 17.8481 8.50631C16.5681 7.26898 14.8614 6.65031 12.7281 6.65031C10.8507 6.65031 9.05875 7.11965 7.35208 8.05832C5.68808 8.99698 3.78942 10.661 1.65608 13.0503L0.184082 11.0023ZM23.9281 33.6583C24.4401 32.3783 24.8668 31.1836 25.2081 30.0743C25.5921 28.9223 25.9974 27.7703 26.4241 26.6183H29.8161C29.6454 28.3676 29.5174 30.1596 29.4321 31.9943C29.3468 33.829 29.3041 35.6636 29.3041 37.4983C29.3041 37.9676 29.3041 38.4583 29.3041 38.9703C29.3468 39.4396 29.3681 39.909 29.3681 40.3783L23.9281 33.6583Z" fill="#292D32"/>
<path d="M37.8162 40.3783L40.1358 31.9042C38.7044 29.4237 37.9523 26.6118 37.9537 23.7284C37.9578 14.7139 45.2934 7.3783 54.3065 7.3783C58.6804 7.37967 62.7862 9.0833 65.8744 12.1743C68.9613 15.2653 70.6608 19.3738 70.6594 23.7435C70.6553 32.7594 63.3197 40.095 54.3065 40.095C51.5703 40.0937 48.8739 39.4075 46.4855 38.104L37.8162 40.3783ZM46.887 35.1437C49.1915 36.5118 51.3915 37.3313 54.301 37.3327C61.792 37.3327 67.8943 31.2359 67.8984 23.7408C67.9012 16.2305 61.8278 10.142 54.312 10.1393C46.8155 10.1393 40.7174 16.236 40.7147 23.7298C40.7133 26.7892 41.6098 29.0799 43.1154 31.4765L41.7418 36.4925L46.887 35.1437ZM62.5442 27.6307C62.4424 27.4602 62.1702 27.3584 61.7604 27.1535C61.352 26.9487 59.3432 25.96 58.9678 25.8239C58.5938 25.6878 58.3215 25.619 58.0479 26.0288C57.7757 26.4372 56.9919 27.3584 56.754 27.6307C56.5162 27.9029 56.2769 27.9373 55.8685 27.7324C55.4602 27.5275 54.1429 27.0972 52.5823 25.7043C51.3682 24.6208 50.5473 23.2829 50.3094 22.8732C50.0715 22.4648 50.2847 22.2434 50.4882 22.0399C50.6724 21.857 50.8965 21.5628 51.1014 21.3235C51.309 21.087 51.3764 20.9165 51.5139 20.6429C51.65 20.3707 51.5827 20.1314 51.4795 19.9265C51.3764 19.723 50.5597 17.7114 50.22 16.8933C49.8873 16.0972 49.5504 16.2044 49.3002 16.192L48.5164 16.1783C48.2442 16.1783 47.8014 16.28 47.4274 16.6898C47.0534 17.0995 45.9974 18.0868 45.9974 20.0984C45.9974 22.11 47.4618 24.0529 47.6653 24.3252C47.8702 24.5974 50.5459 28.7252 54.6448 30.4948C55.6197 30.9155 56.3814 31.1672 56.974 31.3555C57.953 31.6663 58.844 31.6223 59.548 31.5178C60.3332 31.4009 61.9653 30.5292 62.3063 29.5749C62.6473 28.6193 62.6473 27.8012 62.5442 27.6307Z" fill="#292D32"/>
</svg>
