<svg width="66" height="42" viewBox="0 0 66 42" fill="none" xmlns="http://www.w3.org/2000/svg">
<path d="M17.5496 13.6583C20.3229 14.2556 22.5416 15.2156 24.2056 16.5383C25.9122 17.8183 27.1496 19.3116 27.9176 21.0183C28.6856 22.6823 29.0695 24.4316 29.0695 26.2663C29.0695 28.5703 28.4509 30.8103 27.2136 32.9863C26.0189 35.1196 24.2696 36.8903 21.9656 38.2983C19.6616 39.6636 16.8669 40.3463 13.5816 40.3463C11.6189 40.3463 9.44288 39.9623 7.05355 39.1943C4.66422 38.4263 2.31755 36.933 0.0135498 34.7143L1.22955 31.8983C2.97888 33.349 4.81355 34.4583 6.73355 35.2263C8.69622 35.9516 10.5522 36.3143 12.3015 36.3143C14.6056 36.3143 16.5256 35.6316 18.0616 34.2663C19.6402 32.901 20.4296 31.045 20.4296 28.6983C20.4296 26.949 19.9389 25.477 18.9576 24.2823C18.0189 23.0876 16.7602 22.1916 15.1816 21.5943C13.6456 20.9543 12.0029 20.6343 10.2535 20.6343L9.16555 17.6903C10.7016 16.069 11.9816 14.7036 13.0056 13.5943C14.0722 12.4423 14.9896 11.3543 15.7576 10.3303C16.5682 9.26363 17.3789 8.11163 18.1896 6.87429C17.4216 6.83163 16.6322 6.8103 15.8216 6.8103C15.0536 6.76763 14.1149 6.7463 13.0056 6.7463C11.8535 6.7463 10.8082 6.76763 9.86955 6.8103C8.97355 6.8103 7.90688 6.85296 6.66955 6.9383C6.24288 7.87696 5.85888 8.87963 5.51755 9.9463C5.17622 10.9703 4.77088 12.037 4.30155 13.1463H1.16555C1.33622 11.0983 1.42155 8.87963 1.42155 6.4903C1.46422 4.0583 1.48555 1.9463 1.48555 0.154297C3.36288 0.196963 5.32555 0.239629 7.37355 0.282295C9.42155 0.324961 11.4056 0.346294 13.3256 0.346294C15.5869 0.346294 17.6989 0.324961 19.6616 0.282295C21.6669 0.239629 23.7576 0.196963 25.9335 0.154297L26.5736 4.82629C25.0376 6.36229 23.4802 7.87696 21.9016 9.3703C20.3229 10.821 18.8722 12.2503 17.5496 13.6583Z" fill="#292D32"/>
<path d="M64.9845 34.2099C65.0145 35.3349 64.7145 36.3999 64.1745 37.3149C63.8745 37.8549 63.4695 38.35 63.0195 38.755C61.9845 39.715 60.6195 40.3 59.1045 40.345C56.9145 40.39 54.9795 39.265 53.9145 37.54C53.3445 36.655 52.9995 35.59 52.9845 34.465C52.9395 32.575 53.7795 30.8649 55.1295 29.7399C56.1495 28.8999 57.4395 28.375 58.8495 28.345C62.1645 28.27 64.9095 30.8949 64.9845 34.2099Z" stroke="#292D32" stroke-width="2" stroke-miterlimit="10" stroke-linecap="round" stroke-linejoin="round"/>
<path d="M56.6445 34.39L58.1595 35.83L61.2945 32.7999" stroke="#292D32" stroke-width="2" stroke-linecap="round" stroke-linejoin="round"/>
<path d="M35.2396 18.505L48.4846 26.17L61.6396 18.55" stroke="#292D32" stroke-width="2" stroke-linecap="round" stroke-linejoin="round"/>
<path d="M48.4846 39.76V26.155" stroke="#292D32" stroke-width="2" stroke-linecap="round" stroke-linejoin="round"/>
<path d="M62.8995 21.1V29.59C62.8995 29.665 62.8996 29.725 62.8846 29.8C61.8346 28.885 60.4846 28.345 58.9846 28.345C57.5746 28.345 56.2696 28.84 55.2346 29.665C53.8546 30.76 52.9846 32.455 52.9846 34.345C52.9846 35.47 53.2995 36.535 53.8545 37.435C53.9895 37.675 54.1545 37.9 54.3345 38.11L51.5896 39.625C49.8796 40.585 47.0895 40.585 45.3795 39.625L37.3696 35.185C35.5546 34.18 34.0696 31.66 34.0696 29.59V21.1C34.0696 19.03 35.5546 16.51 37.3696 15.505L45.3795 11.065C47.0895 10.105 49.8796 10.105 51.5896 11.065L59.5996 15.505C61.4146 16.51 62.8995 19.03 62.8995 21.1Z" stroke="#292D32" stroke-width="2" stroke-linecap="round" stroke-linejoin="round"/>
</svg>
