<svg width="57" height="42" viewBox="0 0 57 42" fill="none" xmlns="http://www.w3.org/2000/svg">
<path d="M18.683 0.090332C18.6403 2.949 18.5977 5.35967 18.555 7.32233C18.555 9.285 18.5337 10.9703 18.491 12.3783C18.491 13.7437 18.4697 15.0237 18.427 16.2183C18.427 17.413 18.427 18.6717 18.427 19.9943C18.427 21.9143 18.427 23.7063 18.427 25.3703C18.4697 26.9917 18.5123 28.6343 18.555 30.2983C18.5977 31.9623 18.6403 33.8397 18.683 35.9303L26.491 37.5303L25.467 40.4103C24.2723 40.325 22.587 40.2823 20.411 40.2823C18.2777 40.2397 16.1443 40.2183 14.011 40.2183C12.8163 40.2183 11.4297 40.2397 9.85101 40.2823C8.31501 40.2823 6.82168 40.3037 5.37101 40.3463C3.92034 40.3463 2.72568 40.3677 1.78701 40.4103L0.763011 37.5303L8.89101 35.9303C8.97635 33.925 9.01901 32.133 9.01901 30.5543C9.06168 28.9757 9.08301 27.4397 9.08301 25.9463C9.12568 24.4103 9.14701 22.725 9.14701 20.8903C9.14701 19.2263 9.12568 17.8397 9.08301 16.7303C9.08301 15.5783 9.06168 14.4477 9.01901 13.3383C9.01901 12.1863 8.97635 10.757 8.89101 9.05033L1.33901 9.24233L0.187012 6.04234C2.61901 5.701 5.17901 5.08233 7.86701 4.18633C10.555 3.29033 13.0083 1.925 15.227 0.090332H18.683Z" fill="#292D32"/>
<path d="M26.491 10.4103H29.101C30.721 10.4103 31.996 11.8053 31.861 13.4103L30.616 28.3503C30.406 30.7953 32.341 32.8953 34.801 32.8953H50.776C52.936 32.8953 54.826 31.1253 54.991 28.9803L55.801 17.7303C55.981 15.2403 54.091 13.2153 51.586 13.2153H32.221" stroke="#292D32" stroke-width="2" stroke-miterlimit="10" stroke-linecap="round" stroke-linejoin="round"/>
<path d="M47.866 40.4103C48.9015 40.4103 49.741 39.5709 49.741 38.5353C49.741 37.4998 48.9015 36.6603 47.866 36.6603C46.8304 36.6603 45.991 37.4998 45.991 38.5353C45.991 39.5709 46.8304 40.4103 47.866 40.4103Z" stroke="#292D32" stroke-width="2" stroke-miterlimit="10" stroke-linecap="round" stroke-linejoin="round"/>
<path d="M35.866 40.4103C36.9015 40.4103 37.741 39.5709 37.741 38.5353C37.741 37.4998 36.9015 36.6603 35.866 36.6603C34.8304 36.6603 33.991 37.4998 33.991 38.5353C33.991 39.5709 34.8304 40.4103 35.866 40.4103Z" stroke="#292D32" stroke-width="2" stroke-miterlimit="10" stroke-linecap="round" stroke-linejoin="round"/>
<path d="M36.991 19.4103H54.991" stroke="#292D32" stroke-width="2" stroke-miterlimit="10" stroke-linecap="round" stroke-linejoin="round"/>
</svg>
