<svg width="63" height="42" viewBox="0 0 63 42" fill="none" xmlns="http://www.w3.org/2000/svg">
<path d="M0.900393 19.5463C1.24173 17.5409 1.51906 15.3863 1.73239 13.0823C1.94573 10.7356 2.11639 8.45294 2.24439 6.23428C2.41506 3.97294 2.50039 2.03161 2.50039 0.410278C4.37773 0.452944 6.06306 0.495611 7.55639 0.538277C9.04973 0.538277 10.8631 0.538277 12.9964 0.538277C13.7644 0.538277 14.7244 0.538277 15.8764 0.538277C17.0284 0.538277 18.2444 0.538277 19.5244 0.538277C20.8044 0.495611 21.9991 0.474277 23.1084 0.474277C24.2177 0.431611 25.0924 0.410278 25.7324 0.410278L25.4764 8.28228C24.1964 7.89828 22.5964 7.59961 20.6764 7.38628C18.7991 7.13028 16.8791 6.95961 14.9164 6.87428C12.9964 6.78894 11.3111 6.74628 9.86039 6.74628C8.40973 6.70361 7.44973 6.68228 6.98039 6.68228C6.68173 7.66361 6.44706 8.68761 6.27639 9.75428C6.10573 10.7783 5.97773 11.8663 5.89239 13.0183C6.70306 12.8903 7.47106 12.8049 8.19639 12.7623C8.96439 12.7196 9.94573 12.6983 11.1404 12.6983C14.6391 12.6983 17.6044 13.3809 20.0364 14.7463C22.5111 16.0689 24.3884 17.7756 25.6684 19.8663C26.9484 21.9143 27.5884 24.0689 27.5884 26.3303C27.5884 29.5303 26.7351 32.1969 25.0284 34.3303C23.3644 36.4209 21.1457 37.9996 18.3724 39.0663C15.5991 40.0903 12.5484 40.6023 9.22039 40.6023C6.31906 40.6023 3.39639 40.2183 0.452393 39.4503L0.964393 35.9943C3.48173 36.7623 5.97773 37.1463 8.45239 37.1463C10.5004 37.1463 12.3564 36.8689 14.0204 36.3143C15.6844 35.7169 17.0071 34.8209 17.9884 33.6263C19.0124 32.4316 19.5244 30.9169 19.5244 29.0823C19.5244 27.6743 19.1191 26.3729 18.3084 25.1783C17.5404 23.9409 16.3671 22.9596 14.7884 22.2343C13.2524 21.4663 11.3324 21.0823 9.02839 21.0823C7.57773 21.0823 6.34039 21.1463 5.31639 21.2743C4.33506 21.4023 3.50306 21.5729 2.82039 21.7863L0.900393 19.5463Z" fill="#292D32"/>
<path d="M33.6205 24.4323V31.1673C33.6205 37.9023 36.3205 40.6023 43.0555 40.6023H51.1405C57.8755 40.6023 60.5755 37.9023 60.5755 31.1673V24.4323" stroke="#292D32" stroke-width="2" stroke-linecap="round" stroke-linejoin="round"/>
<path d="M47.1056 25.6023C49.8506 25.6023 51.8756 23.3673 51.6056 20.6223L50.6156 10.6023H43.6106L42.6056 20.6223C42.3356 23.3673 44.3606 25.6023 47.1056 25.6023Z" stroke="#292D32" stroke-width="2" stroke-linecap="round" stroke-linejoin="round"/>
<path d="M56.5705 25.6023C59.6005 25.6023 61.8205 23.1423 61.5205 20.1273L61.1005 16.0023C60.5605 12.1023 59.0605 10.6023 55.1305 10.6023H50.5555L51.6055 21.1173C51.8605 23.5923 54.0955 25.6023 56.5705 25.6023Z" stroke="#292D32" stroke-width="2" stroke-linecap="round" stroke-linejoin="round"/>
<path d="M37.5655 25.6023C40.0405 25.6023 42.2755 23.5923 42.5155 21.1173L42.8455 17.8023L43.5655 10.6023H38.9905C35.0605 10.6023 33.5605 12.1023 33.0205 16.0023L32.6155 20.1273C32.3155 23.1423 34.5355 25.6023 37.5655 25.6023Z" stroke="#292D32" stroke-width="2" stroke-linecap="round" stroke-linejoin="round"/>
<path d="M47.1056 33.1023C44.6006 33.1023 43.3556 34.3473 43.3556 36.8523V40.6023H50.8556V36.8523C50.8556 34.3473 49.6106 33.1023 47.1056 33.1023Z" stroke="#292D32" stroke-width="2" stroke-linecap="round" stroke-linejoin="round"/>
</svg>
