<svg width="24" height="24" viewBox="0 0 24 24" fill="none" xmlns="http://www.w3.org/2000/svg">
<path d="M14.0088 16C14.0088 17.77 13.2388 19.37 12.0088 20.46C10.9488 21.42 9.54879 22 8.00879 22C4.69879 22 2.00879 19.31 2.00879 16C2.00879 13.24 3.88879 10.9 6.42879 10.21C7.11879 11.95 8.59879 13.29 10.4288 13.79C10.9288 13.93 11.4588 14 12.0088 14C12.5588 14 13.0888 13.93 13.5888 13.79C13.8588 14.47 14.0088 15.22 14.0088 16Z" stroke="#292D32" stroke-width="1.5" stroke-linecap="round" stroke-linejoin="round"/>
<path d="M18.0088 8C18.0088 8.78 17.8588 9.53 17.5888 10.21C16.8988 11.95 15.4188 13.29 13.5888 13.79C13.0888 13.93 12.5588 14 12.0088 14C11.4588 14 10.9288 13.93 10.4288 13.79C8.59879 13.29 7.11879 11.95 6.42879 10.21C6.15879 9.53 6.00879 8.78 6.00879 8C6.00879 4.69 8.69879 2 12.0088 2C15.3188 2 18.0088 4.69 18.0088 8Z" stroke="#292D32" stroke-width="1.5" stroke-linecap="round" stroke-linejoin="round"/>
<path d="M22.0088 16C22.0088 19.31 19.3188 22 16.0088 22C14.4688 22 13.0688 21.42 12.0088 20.46C13.2388 19.37 14.0088 17.77 14.0088 16C14.0088 15.22 13.8588 14.47 13.5888 13.79C15.4188 13.29 16.8988 11.95 17.5888 10.21C20.1288 10.9 22.0088 13.24 22.0088 16Z" stroke="#292D32" stroke-width="1.5" stroke-linecap="round" stroke-linejoin="round"/>
</svg>
