<svg width="37" height="37" viewBox="0 0 37 37" fill="none" xmlns="http://www.w3.org/2000/svg">
<path d="M18.5812 30.9426C19.5483 28.6144 30.6853 22.5109 33.0075 24.1132C33.6818 26.6512 32.1209 32.9604 24.3357 33.9221C22.0369 34.206 18.1782 32.8828 18.5812 30.9426Z" fill="#FC7C48"/>
<path d="M6.65336 30.9426C7.63953 28.6144 18.9957 22.5109 21.3637 24.1132C22.0513 26.6512 20.4597 32.9604 12.5212 33.9221C10.1771 34.206 6.24246 32.8828 6.65336 30.9426Z" fill="#FC7C48"/>
<path d="M12.0141 18.8189C13.0154 16.4908 24.5462 10.3873 26.9505 11.9895C27.6487 14.5276 26.0326 20.8368 17.9721 21.7984C15.592 22.0824 11.5968 20.7591 12.0141 18.8189Z" fill="#E65046"/>
<path d="M21.0965 24.8367C21.0965 27.4917 19.9415 29.8917 18.0965 31.5267C16.5065 32.9667 14.4065 33.8367 12.0965 33.8367C7.13153 33.8367 3.09653 29.8017 3.09653 24.8367C3.09653 20.6967 5.91653 17.1867 9.72653 16.1517C10.7615 18.7617 12.9815 20.7717 15.7265 21.5217C16.4765 21.7317 17.2715 21.8367 18.0965 21.8367C18.9215 21.8367 19.7165 21.7317 20.4665 21.5217C20.8715 22.5417 21.0965 23.6667 21.0965 24.8367Z" stroke="#292D32" stroke-width="1.8" stroke-linecap="round" stroke-linejoin="round"/>
<path d="M27.0965 12.8367C27.0965 14.0067 26.8715 15.1317 26.4665 16.1517C25.4315 18.7617 23.2115 20.7717 20.4665 21.5217C19.7165 21.7317 18.9215 21.8367 18.0965 21.8367C17.2715 21.8367 16.4765 21.7317 15.7265 21.5217C12.9815 20.7717 10.7615 18.7617 9.72653 16.1517C9.32153 15.1317 9.09653 14.0067 9.09653 12.8367C9.09653 7.87167 13.1315 3.83667 18.0965 3.83667C23.0615 3.83667 27.0965 7.87167 27.0965 12.8367Z" stroke="#292D32" stroke-width="1.8" stroke-linecap="round" stroke-linejoin="round"/>
<path d="M33.0965 24.8367C33.0965 29.8017 29.0615 33.8367 24.0965 33.8367C21.7865 33.8367 19.6865 32.9667 18.0965 31.5267C19.9415 29.8917 21.0965 27.4917 21.0965 24.8367C21.0965 23.6667 20.8715 22.5417 20.4665 21.5217C23.2115 20.7717 25.4315 18.7617 26.4665 16.1517C30.2765 17.1867 33.0965 20.6967 33.0965 24.8367Z" stroke="#292D32" stroke-width="1.8" stroke-linecap="round" stroke-linejoin="round"/>
</svg>
