<svg width="22" height="27" viewBox="0 0 22 27" fill="none" xmlns="http://www.w3.org/2000/svg">
<path d="M4.3707 12.411C6.22741 12.411 7.73254 10.9059 7.73254 9.04916C7.73254 7.19245 6.22741 5.68732 4.3707 5.68732C2.51399 5.68732 1.00882 7.19245 1.00882 9.04916C1.00882 10.9059 2.51399 12.411 4.3707 12.411Z" stroke="black" stroke-width="1.2" stroke-linecap="round" stroke-linejoin="round"/>
<path d="M11.1878 12.411C13.0445 12.411 14.5496 10.9059 14.5496 9.04916C14.5496 7.19245 13.0445 5.68732 11.1878 5.68732C9.33104 5.68732 7.82588 7.19245 7.82588 9.04916C7.82588 10.9059 9.33104 12.411 11.1878 12.411Z" stroke="black" stroke-width="1.2" stroke-linecap="round" stroke-linejoin="round"/>
<path d="M18.0049 12.411C19.8616 12.411 21.3668 10.9059 21.3668 9.04916C21.3668 7.19245 19.8616 5.68732 18.0049 5.68732C16.1482 5.68732 14.6431 7.19245 14.6431 9.04916C14.6431 10.9059 16.1482 12.411 18.0049 12.411Z" stroke="black" stroke-width="1.2" stroke-linecap="round" stroke-linejoin="round"/>
<path d="M7.82591 19.2282C9.68262 19.2282 11.1878 17.723 11.1878 15.8663C11.1878 14.0096 9.68262 12.5045 7.82591 12.5045C5.9692 12.5045 4.46403 14.0096 4.46403 15.8663C4.46403 17.723 5.9692 19.2282 7.82591 19.2282Z" stroke="black" stroke-width="1.2" stroke-linecap="round" stroke-linejoin="round"/>
<path d="M14.5497 19.2282C16.4064 19.2282 17.9116 17.723 17.9116 15.8663C17.9116 14.0096 16.4064 12.5045 14.5497 12.5045C12.693 12.5045 11.1878 14.0096 11.1878 15.8663C11.1878 17.723 12.693 19.2282 14.5497 19.2282Z" stroke="black" stroke-width="1.2" stroke-linecap="round" stroke-linejoin="round"/>
<path d="M11.1878 25.485C13.0445 25.485 14.5496 23.9798 14.5496 22.1231C14.5496 20.2664 13.0445 18.7612 11.1878 18.7612C9.33104 18.7612 7.82588 20.2664 7.82588 22.1231C7.82588 23.9798 9.33104 25.485 11.1878 25.485Z" stroke="black" stroke-width="1.2" stroke-linecap="round" stroke-linejoin="round"/>
<path d="M11.1878 5.68732C11.0701 4.89152 11.1733 4.07864 11.4862 3.33753C11.7991 2.59642 12.3097 1.95558 12.9621 1.48499" stroke="black" stroke-width="1.2" stroke-linecap="round" stroke-linejoin="round"/>
</svg>
