<svg width="37" height="37" viewBox="0 0 37 37" fill="none" xmlns="http://www.w3.org/2000/svg">
<path d="M14.5679 32.1779C19.7078 31.7995 20.1797 26.0421 21.7911 27.3901C23.2302 30.1576 21.6527 33.866 18.2764 34.0598C16.6661 34.1522 15.1491 33.4786 14.5679 32.1779Z" fill="#E65046"/>
<path d="M19.1891 24.2293C24.329 23.851 24.8009 18.0936 26.4123 19.4415C27.8514 22.209 26.2739 25.9175 22.8976 26.1112C21.2873 26.2037 19.7703 25.5301 19.1891 24.2293Z" fill="#FC7C48"/>
<path d="M10.3407 24.3601C15.4806 23.9818 15.9525 18.2244 17.5639 19.5723C19.003 22.3398 17.4255 26.0483 14.0492 26.242C12.4389 26.3345 10.9219 25.6609 10.3407 24.3601Z" fill="#FC7C48"/>
<path d="M6.09808 16.079C11.238 15.7006 11.7099 9.94325 13.3213 11.2912C14.7604 14.0587 13.1829 17.7671 9.80656 17.9609C8.19627 18.0533 6.67927 17.3797 6.09808 16.079Z" fill="#E65046"/>
<path d="M14.5679 15.6265C19.7078 15.2481 20.1797 9.49074 21.7911 10.8387C23.2302 13.6062 21.6527 17.3146 18.2764 17.5084C16.6661 17.6008 15.1491 16.9272 14.5679 15.6265Z" fill="#FC7C48"/>
<path d="M23.1858 15.7444C28.3257 15.366 28.7976 9.60866 30.409 10.9566C31.8481 13.7241 30.2706 17.4325 26.8943 17.6263C25.284 17.7187 23.767 17.0451 23.1858 15.7444Z" fill="#E65046"/>
<path d="M9.49378 17.5168C11.8368 17.5168 13.7362 15.6174 13.7362 13.2744C13.7362 10.9313 11.8368 9.03192 9.49378 9.03192C7.15073 9.03192 5.2513 10.9313 5.2513 13.2744C5.2513 15.6174 7.15073 17.5168 9.49378 17.5168Z" stroke="#292D32" stroke-width="1.32" stroke-linecap="round" stroke-linejoin="round"/>
<path d="M18.0965 17.5168C20.4395 17.5168 22.339 15.6174 22.339 13.2744C22.339 10.9313 20.4395 9.03192 18.0965 9.03192C15.7534 9.03192 13.854 10.9313 13.854 13.2744C13.854 15.6174 15.7534 17.5168 18.0965 17.5168Z" stroke="#292D32" stroke-width="1.32" stroke-linecap="round" stroke-linejoin="round"/>
<path d="M26.6993 17.5168C29.0423 17.5168 30.9418 15.6174 30.9418 13.2744C30.9418 10.9313 29.0423 9.03192 26.6993 9.03192C24.3562 9.03192 22.4569 10.9313 22.4569 13.2744C22.4569 15.6174 24.3562 17.5168 26.6993 17.5168Z" stroke="#292D32" stroke-width="1.32" stroke-linecap="round" stroke-linejoin="round"/>
<path d="M13.854 26.1197C16.1971 26.1197 18.0965 24.2202 18.0965 21.8772C18.0965 19.5341 16.1971 17.6347 13.854 17.6347C11.511 17.6347 9.61157 19.5341 9.61157 21.8772C9.61157 24.2202 11.511 26.1197 13.854 26.1197Z" stroke="#292D32" stroke-width="1.32" stroke-linecap="round" stroke-linejoin="round"/>
<path d="M22.3391 26.1197C24.6821 26.1197 26.5816 24.2202 26.5816 21.8772C26.5816 19.5341 24.6821 17.6347 22.3391 17.6347C19.996 17.6347 18.0966 19.5341 18.0966 21.8772C18.0966 24.2202 19.996 26.1197 22.3391 26.1197Z" stroke="#292D32" stroke-width="1.32" stroke-linecap="round" stroke-linejoin="round"/>
<path d="M18.0965 34.0153C20.4395 34.0153 22.339 32.1159 22.339 29.7728C22.339 27.4298 20.4395 25.5304 18.0965 25.5304C15.7534 25.5304 13.854 27.4298 13.854 29.7728C13.854 32.1159 15.7534 34.0153 18.0965 34.0153Z" stroke="#292D32" stroke-width="1.32" stroke-linecap="round" stroke-linejoin="round"/>
<path d="M18.0966 9.03191C17.948 8.02766 18.0782 7.00185 18.4731 6.06661C18.868 5.13138 19.5123 4.32268 20.3356 3.72882" stroke="#292D32" stroke-width="1.32" stroke-linecap="round" stroke-linejoin="round"/>
</svg>
