<svg width="49" height="49" viewBox="0 0 49 49" fill="none" xmlns="http://www.w3.org/2000/svg">
<path d="M0.149902 48.08L3.5239 35.754C1.4419 32.146 0.347902 28.056 0.349902 23.862C0.355902 10.75 11.0259 0.0799561 24.1359 0.0799561C30.4979 0.0819561 36.4699 2.55996 40.9619 7.05596C45.4519 11.552 47.9239 17.528 47.9219 23.884C47.9159 36.998 37.2459 47.668 24.1359 47.668C20.1559 47.666 16.2339 46.668 12.7599 44.772L0.149902 48.08ZM13.3439 40.466C16.6959 42.456 19.8959 43.648 24.1279 43.65C35.0239 43.65 43.8999 34.782 43.9059 23.88C43.9099 12.956 35.0759 4.09996 24.1439 4.09596C13.2399 4.09596 4.3699 12.964 4.3659 23.864C4.3639 28.314 5.6679 31.646 7.8579 35.132L5.8599 42.428L13.3439 40.466ZM36.1179 29.538C35.9699 29.29 35.5739 29.142 34.9779 28.844C34.3839 28.546 31.4619 27.108 30.9159 26.91C30.3719 26.712 29.9759 26.612 29.5779 27.208C29.1819 27.802 28.0419 29.142 27.6959 29.538C27.3499 29.934 27.0019 29.984 26.4079 29.686C25.8139 29.388 23.8979 28.762 21.6279 26.736C19.8619 25.16 18.6679 23.214 18.3219 22.618C17.9759 22.024 18.2859 21.702 18.5819 21.406C18.8499 21.14 19.1759 20.712 19.4739 20.364C19.7759 20.02 19.8739 19.772 20.0739 19.374C20.2719 18.978 20.1739 18.63 20.0239 18.332C19.8739 18.036 18.6859 15.11 18.1919 13.92C17.7079 12.762 17.2179 12.918 16.8539 12.9L15.7139 12.88C15.3179 12.88 14.6739 13.028 14.1299 13.624C13.5859 14.22 12.0499 15.656 12.0499 18.582C12.0499 21.508 14.1799 24.334 14.4759 24.73C14.7739 25.126 18.6659 31.13 24.6279 33.704C26.0459 34.316 27.1539 34.682 28.0159 34.956C29.4399 35.408 30.7359 35.344 31.7599 35.192C32.9019 35.022 35.2759 33.754 35.7719 32.366C36.2679 30.976 36.2679 29.786 36.1179 29.538Z" fill="#292D32"/>
</svg>
